<?xml version="1.0" encoding="iso-8859-1"?>
<!-- Generator: Adobe Illustrator 19.0.0, SVG Export Plug-In . SVG Version: 6.00 Build 0)  -->
<svg version="1.1" id="Capa_1" xmlns="http://www.w3.org/2000/svg" xmlns:xlink="http://www.w3.org/1999/xlink" x="0px" y="0px"
	 viewBox="0 0 511.819 511.819" style="enable-background:new 0 0 511.819 511.819;" xml:space="preserve">
<path style="fill:#E14B4B;" d="M511.819,272.06v26.48c0,0-8.448,14.88-14.032,17.2h-101.28l-7.44-2.32l-3.264,7.44H133.051
	l-0.672-0.24l-11.408-3.952L35.019,327.82c0,0-2.72-0.128-6.624-0.64c-10.944-1.424-31.152-5.856-26.368-18.88
	c0,0-4.56-24.688,0-39.024c0,0,1.392-19.984,18.576-26.96c17.2-6.96,67.84-20.448,95.712-24.608c0,0,24.624-7.44,35.312-17.2
	c0,0,24.112-18.016,53.888-31.072c16.048-7.024,33.216-11.168,50.656-12.8c33.744-3.168,107.088-8.048,153.776,3.44
	c39.664,9.776,65.952,32.176,79.792,47.152c7.6,8.224,11.744,18.96,11.744,30.16v10.048l3.248,11.616
	C504.747,259.052,511.819,264.156,511.819,272.06z"/>
<path style="fill:#2E3235;" d="M132.587,315.9c0,1.584-0.064,3.168-0.208,4.72l-11.408-3.952L35.019,327.82
	c0,0-2.72-0.128-6.624-0.64c-0.8-3.632-1.216-7.408-1.216-11.28c0-29.104,23.6-52.704,52.704-52.704S132.587,286.796,132.587,315.9z
	"/>
<circle style="fill:#3E4347;" cx="79.883" cy="315.9" r="43.072"/>
<path style="fill:#2E3235;" d="M388.059,315.708l1.008-2.304l7.44,2.32h96.944c-0.096-29.024-23.648-52.528-52.688-52.528
	C411.707,263.196,388.155,286.7,388.059,315.708z"/>
<g>
	<circle style="fill:#3E4347;" cx="440.747" cy="315.9" r="43.072"/>
	<path style="fill:#3E4347;" d="M287.499,166.652c-8.944,0.304-14.608,0.608-14.72,0.624l-0.32,0.016h-0.32
		c-0.896-0.032-1.792-0.032-2.688-0.032c-39.056,0-77.968,23.2-97.696,37.024c-8.912,6.24-15.92,15.024-19.984,24.944l124.464-9.936
		L287.499,166.652z"/>
	<path style="fill:#3E4347;" d="M403.771,174.444c-12.368-5.408-41.824-8.384-83.072-8.384c-4.832,0-9.52,0.048-13.936,0.112
		l-4.48,51.024l0,0l123.344-9.84c0.4-2.304,0.736-4.496,0.976-6.496l0.016-0.16l0.032-0.16
		C427.947,192.988,413.899,180.62,403.771,174.444z"/>
</g>
<g>
	<path style="fill:#FFD83B;" d="M11.019,261.468c0,0,17.136-19.952,36.336-18.448c4.672,0.368,18.64,6.624-3.2,18.448
		c-6.832,3.696-20.272,5.872-30.496,6.032C5.371,267.612,11.019,261.468,11.019,261.468z"/>
	<path style="fill:#FFD83B;" d="M501.499,247.436v-10.048c0-4.336-0.8-8.544-2-12.624c-6.912-0.864-15.568-1.296-18.384,1.52
		c-3.744,3.744-3.744,17.44,0,21.184c3.136,3.136,13.6,2.256,20.72,1.216L501.499,247.436z"/>
</g>
<circle style="fill:#CBD6E0;" cx="79.883" cy="315.9" r="28.752"/>
<circle style="fill:#939799;" cx="79.883" cy="315.9" r="23.456"/>
<g>
	<circle style="fill:#CBD6E0;" cx="79.883" cy="315.9" r="16.88"/>
	<circle style="fill:#CBD6E0;" cx="440.747" cy="315.9" r="28.752"/>
</g>
<circle style="fill:#939799;" cx="440.747" cy="315.9" r="23.456"/>
<circle style="fill:#CBD6E0;" cx="440.747" cy="315.9" r="16.88"/>
<g>
	<path style="fill:#5A5F63;" d="M180.875,226.892l26.192-2.096l32.944-53.568c-11.456,2.944-22.32,7.28-32.32,12.064
		L180.875,226.892z"/>
	<path style="fill:#5A5F63;" d="M216.299,224.06l13.664-1.088l34.032-55.344c-4.688,0.256-9.344,0.768-13.968,1.584L216.299,224.06z
		"/>
	<path style="fill:#5A5F63;" d="M309.403,216.636l26.192-2.096l28.912-47.024c-7.296-0.544-15.392-0.944-24.192-1.168
		L309.403,216.636z"/>
	<path style="fill:#5A5F63;" d="M344.811,213.804l13.664-1.088l26.416-42.96c-3.68-0.576-7.632-1.104-12.048-1.536L344.811,213.804z
		"/>
</g>
<g>
</g>
<g>
</g>
<g>
</g>
<g>
</g>
<g>
</g>
<g>
</g>
<g>
</g>
<g>
</g>
<g>
</g>
<g>
</g>
<g>
</g>
<g>
</g>
<g>
</g>
<g>
</g>
<g>
</g>
</svg>
