<svg height="512pt" viewBox="0 -44 512 512" width="512pt" xmlns="http://www.w3.org/2000/svg"><path d="m397.464844 27.816406c-5.039063 0-9.867188.878906-14.355469 2.484375-3.589844 1.285157-7.605469-.488281-9.070313-4.011719-6.417968-15.433593-21.636718-26.289062-39.394531-26.289062-17.757812 0-32.972656 10.855469-39.390625 26.289062-1.464844 3.523438-5.484375 5.296876-9.074218 4.011719-4.484376-1.609375-9.316407-2.484375-14.355469-2.484375-14.503907 0-27.3125 7.246094-35.015625 18.3125-1.863282 2.675782-5.214844 3.769532-8.296875 2.695313-4.382813-1.523438-9.09375-2.359375-14-2.359375-23.558594 0-42.65625 19.097656-42.65625 42.65625 0 23.5625 19.097656 42.660156 42.65625 42.660156 5.9375 0 11.585937-1.21875 16.722656-3.410156 2.902344-1.238282 6.292969-.398438 8.359375 1.984375 7.820312 9.019531 19.355469 14.726562 32.230469 14.726562 17.761719 0 32.976562-10.855469 39.394531-26.289062 1.464844-3.523438 5.480469-5.296875 9.070312-4.011719 4.488282 1.609375 9.316407 2.484375 14.355469 2.484375 3.765625 0 7.414063-.488281 10.890625-1.402344 4.679688-1.234375 9.273438 2.207031 9.273438 7.046875v5.023438c0 23.558594 19.097656 42.660156 42.65625 42.660156s42.65625-19.101562 42.65625-42.660156v-57.457032c0-23.5625-19.097656-42.660156-42.65625-42.660156zm0 0" fill="#efe2dd"/><path d="m423.65625 36.816406v33.636719c0 23.558594-19.097656 42.65625-42.65625 42.65625s-42.65625-19.097656-42.65625-42.65625v-5.023437c0-4.839844-4.59375-8.28125-9.269531-7.046876-3.476563.914063-7.128907 1.402344-10.890625 1.402344-5.039063 0-9.871094-.878906-14.355469-2.484375-3.589844-1.285156-7.609375.488281-9.070313 4.011719-6.417968 15.433594-21.636718 26.289062-39.394531 26.289062-12.875 0-24.410156-5.707031-32.230469-14.726562-2.066406-2.382812-5.460937-3.226562-8.359374-1.984375-5.136719 2.191406-10.785157 3.410156-16.722657 3.410156-7.648437 0-14.816406-2.023437-21.023437-5.546875-3.296875 6.050782-5.171875 12.992188-5.171875 20.367188 0 23.558594 19.097656 42.65625 42.65625 42.65625 5.9375 0 11.585937-1.214844 16.722656-3.410156 2.902344-1.238282 6.292969-.394532 8.359375 1.988281 7.820312 9.019531 19.355469 14.726562 32.230469 14.726562 17.761719 0 32.976562-10.855469 39.394531-26.292969 1.464844-3.519531 5.480469-5.292968 9.070312-4.007812 4.488282 1.609375 9.316407 2.484375 14.355469 2.484375 3.765625 0 7.414063-.488281 10.890625-1.40625 4.679688-1.230469 9.273438 2.210937 9.273438 7.046875v5.027344c0 23.558594 19.097656 42.65625 42.65625 42.65625 23.554687 0 42.65625-19.097656 42.65625-42.65625v-57.460938c0-13.679687-6.449219-25.847656-16.464844-33.65625zm0 0" fill="#e1d3ce"/><path d="m225.605469 28.820312c-5.035157 0-9.867188.878907-14.351563 2.484376-3.59375 1.285156-7.609375-.488282-9.074218-4.007813-6.417969-15.4375-21.632813-26.292969-39.394532-26.292969-17.757812 0-32.972656 10.855469-39.390625 26.292969-1.464843 3.519531-5.484375 5.292969-9.074219 4.007813-4.484374-1.609376-9.316406-2.484376-14.351562-2.484376-14.507812 0-27.3125 7.246094-35.019531 18.3125-1.863281 2.675782-5.214844 3.769532-8.296875 2.695313-4.382813-1.523437-9.09375-2.359375-13.996094-2.359375-23.558594 0-42.65625 19.097656-42.65625 42.65625s19.097656 42.65625 42.65625 42.65625c5.9375 0 11.585938-1.214844 16.722656-3.410156 2.898438-1.238282 6.292969-.394532 8.359375 1.988281 7.820313 9.019531 19.355469 14.726563 32.230469 14.726563 17.757812 0 32.976562-10.855469 39.394531-26.289063 1.460938-3.523437 5.480469-5.296875 9.070313-4.011719 4.488281 1.609375 9.316406 2.484375 14.355468 2.484375 3.765626 0 7.414063-.488281 10.890626-1.40625 4.679687-1.230469 9.269531 2.210938 9.269531 7.046875v5.027344c0 23.558594 19.101562 42.65625 42.660156 42.65625s42.65625-19.097656 42.65625-42.65625v-57.460938c0-23.558593-19.101563-42.65625-42.660156-42.65625zm0 0" fill="#efe2dd"/><path d="m251.800781 37.820312v33.636719c0 23.558594-19.097656 42.65625-42.65625 42.65625-23.558593 0-42.65625-19.097656-42.65625-42.65625v-5.023437c0-4.839844-4.59375-8.28125-9.269531-7.046875-3.480469.914062-7.128906 1.402343-10.894531 1.402343-5.039063 0-9.867188-.878906-14.351563-2.484374-3.589844-1.285157-7.609375.488281-9.074218 4.011718-6.417969 15.433594-21.632813 26.289063-39.390626 26.289063-12.875 0-24.410156-5.707031-32.230468-14.726563-2.066406-2.382812-5.460938-3.226562-8.363282-1.984375-5.132812 2.191407-10.78125 3.410157-16.71875 3.410157-7.648437 0-14.820312-2.023438-21.027343-5.546876-3.296875 6.050782-5.167969 12.992188-5.167969 20.367188 0 23.558594 19.097656 42.65625 42.65625 42.65625 5.9375 0 11.585938-1.214844 16.722656-3.410156 2.898438-1.238282 6.292969-.394532 8.359375 1.988281 7.820313 9.019531 19.355469 14.726563 32.230469 14.726563 17.757812 0 32.972656-10.855469 39.390625-26.289063 1.464844-3.523437 5.484375-5.296875 9.074219-4.011719 4.484375 1.609375 9.316406 2.484375 14.351562 2.484375 3.765625 0 7.417969-.488281 10.894532-1.40625 4.675781-1.230469 9.269531 2.210938 9.269531 7.046875v5.027344c0 23.558594 19.097656 42.65625 42.65625 42.65625 23.558593 0 42.65625-19.097656 42.65625-42.65625v-57.460938c.003906-13.679687-6.445313-25.847656-16.460938-33.65625zm0 0" fill="#e1d3ce"/><path d="m303.988281 279.28125c-7.371093-25.21875-11.109375-51.359375-11.109375-77.632812v-43.328126c0-4.902343-3.976562-8.875-8.875-8.875h-114.449218c-4.898438 0-8.871094 3.972657-8.871094 8.875v43.328126c0 26.273437-3.742188 52.414062-11.113282 77.632812l-36.871093 126.171875h228.160156zm0 0" fill="#b9acac"/><path d="m474.660156 279.28125c-7.371094-25.21875-11.109375-51.359375-11.109375-77.632812v-43.328126c0-4.902343-3.976562-8.875-8.875-8.875h-114.449219c-4.898437 0-8.871093 3.972657-8.871093 8.875v43.328126c0 26.273437-3.742188 52.414062-11.113281 77.632812l-36.871094 126.171875h228.160156zm0 0" fill="#b9acac"/><path d="m303.988281 279.28125c-7.371093-25.21875-11.109375-51.359375-11.109375-77.632812v-43.328126c0-4.902343-3.976562-8.875-8.875-8.875h-62.828125v18.378907c0 26.273437 3.738281 52.414062 11.109375 77.632812l32.449219 111.050781c2.210937 7.558594-3.457031 15.121094-11.335937 15.121094h-130.8125l-9.886719 33.824219h228.160156zm0 0" fill="#9e9797"/><path d="m474.660156 279.28125c-7.371094-25.21875-11.109375-51.359375-11.109375-77.632812v-43.328126c0-4.902343-3.976562-8.875-8.875-8.875h-62.828125v18.378907c0 26.273437 3.738282 52.414062 11.109375 77.632812l32.449219 111.050781c2.210938 7.558594-3.457031 15.121094-11.335938 15.121094h-130.8125l-9.886718 33.824219h228.160156zm0 0" fill="#9e9797"/><path d="m506.75 424.398438h-498.183594c-2.902344 0-5.25-2.347657-5.25-5.25v-15.636719c0-2.898438 2.347656-5.25 5.25-5.25h498.183594c2.898438 0 5.25 2.351562 5.25 5.25v15.636719c0 2.902343-2.351562 5.25-5.25 5.25zm0 0" fill="#766e6e"/><path d="m506.617188 398.265625h-38.917969c2.972656 0 5.378906 2.40625 5.378906 5.378906v15.375c0 2.972657-2.40625 5.378907-5.378906 5.378907h38.917969c2.972656 0 5.382812-2.40625 5.382812-5.378907v-15.375c0-2.972656-2.410156-5.378906-5.382812-5.378906zm0 0" fill="#5b5555"/></svg>