<svg width="100%" height="100%" viewBox="0 0 1563 2780" version="1.1" xmlns="http://www.w3.org/2000/svg" xmlns:xlink="http://www.w3.org/1999/xlink" xml:space="preserve" xmlns:serif="http://www.serif.com/" style="fill-rule:evenodd;clip-rule:evenodd;stroke-linecap:round;stroke-linejoin:round;stroke-miterlimit:1.5;"><rect id="Artboard1" x="0" y="0" width="1562.5" height="2779.17" style="fill:none;"/><clipPath id="_clip1"><rect id="Artboard11" serif:id="Artboard1" x="0" y="0" width="1562.5" height="2779.17"/></clipPath><g clip-path="url(#_clip1)"><rect x="2.653" y="-0.106" width="1554.11" height="2300.89" style="fill:#14171e;"/><rect x="0.674" y="2299.89" width="1553.63" height="481.87" style="fill:#4b4b4b;"/><path d="M-7.986,2301.82l1576.04,0" style="fill:none;stroke:#fef7ea;stroke-width:8.33px;stroke-dasharray:25,25,0,0;"/><rect x="75.526" y="33.81" width="611.757" height="304.615" style="fill:#df9827;"/><g transform="matrix(2.80243,0,0,2.89318,19.1001,-180.239)"><text x="89.519px" y="111.023px" style="font-family:'Arial-BoldMT', 'Arial', sans-serif;font-weight:700;font-size:20.162px;fill:#fef7ea;">Stage 1:</text><text x="39.073px" y="131.845px" style="font-family:'ArialMT', 'Arial', sans-serif;font-size:20.162px;fill:#fef7ea;">Planting, growing, &amp;</text><text x="51.96px" y="152.667px" style="font-family:'ArialMT', 'Arial', sans-serif;font-size:20.162px;fill:#fef7ea;">harvesting cotton</text></g><rect x="85.461" y="606.09" width="606.241" height="308.021" style="fill:#df9827;"/><g transform="matrix(2.86876,0,0,2.92553,18.7806,395.949)"><text x="89.952px" y="111.023px" style="font-family:'Arial-BoldMT', 'Arial', sans-serif;font-weight:700;font-size:19.939px;fill:#fef7ea;">Stage 2:</text><text x="36.75px" y="131.615px" style="font-family:'ArialMT', 'Arial', sans-serif;font-size:19.939px;fill:#fef7ea;">Ginning (processing)</text><text x="101.577px" y="152.207px" style="font-family:'ArialMT', 'Arial', sans-serif;font-size:19.939px;fill:#fef7ea;">cotton</text></g><rect x="78.218" y="1180.8" width="606.373" height="306.574" style="fill:#df9827;"/><g transform="matrix(2.81371,0,0,2.91179,20.7763,971.457)"><text x="89.769px" y="111.023px" style="font-family:'Arial-BoldMT', 'Arial', sans-serif;font-weight:700;font-size:20.033px;fill:#fef7ea;">Stage 3:</text><text x="59.875px" y="131.712px" style="font-family:'ArialMT', 'Arial', sans-serif;font-size:20.033px;fill:#fef7ea;">W<tspan x="78.422px 89.564px " y="131.712px 131.712px ">ea</tspan>ving cotton</text><text x="63.04px" y="152.401px" style="font-family:'ArialMT', 'Arial', sans-serif;font-size:20.033px;fill:#fef7ea;">ﬁbre into fabric</text></g><rect x="84.085" y="2353.46" width="594.639" height="273.85" style="fill:#df9827;"/><g transform="matrix(2.60099,0,0,2.60099,46.3794,2156.81)"><text x="85.113px" y="111.023px" style="font-family:'Arial-BoldMT', 'Arial', sans-serif;font-weight:700;font-size:22.427px;fill:#fef7ea;">Stage 5:</text><text x="42.114px" y="134.184px" style="font-family:'ArialMT', 'Arial', sans-serif;font-size:22.427px;fill:#fef7ea;">Retail: t-shirt sold</text><text x="68.276px" y="157.346px" style="font-family:'ArialMT', 'Arial', sans-serif;font-size:22.427px;fill:#fef7ea;">in UK shops</text></g><rect x="85.48" y="1761.82" width="591.848" height="292.492" style="fill:#df9827;"/><g transform="matrix(2.69751,0,0,2.77804,35.5909,1560.29)"><text x="87.893px" y="111.023px" style="font-family:'Arial-BoldMT', 'Arial', sans-serif;font-weight:700;font-size:20.998px;fill:#fef7ea;">Stage 4:</text><text x="62.204px" y="132.708px" style="font-family:'ArialMT', 'Arial', sans-serif;font-size:20.998px;fill:#fef7ea;">Manufacturing</text><text x="47.056px" y="154.393px" style="font-family:'ArialMT', 'Arial', sans-serif;font-size:20.998px;fill:#fef7ea;">t-shirt from cotton</text></g><path d="M551.529,504.654l-37.5,37.5l-37.5,-37.5" style="fill:none;stroke:#fef7ea;stroke-width:16.67px;stroke-linejoin:miter;stroke-miterlimit:10;"/><path d="M514.029,419.975l0,122.179" style="fill:none;stroke:#fef7ea;stroke-width:16.67px;"/><path d="M551.529,1095.97l-37.5,37.5l-37.5,-37.5" style="fill:none;stroke:#fef7ea;stroke-width:16.67px;stroke-linejoin:miter;stroke-miterlimit:10;"/><path d="M514.029,1011.29l0,122.179" style="fill:none;stroke:#fef7ea;stroke-width:16.67px;"/><path d="M551.529,1657.46l-37.5,37.5l-37.5,-37.5" style="fill:none;stroke:#fef7ea;stroke-width:16.67px;stroke-linejoin:miter;stroke-miterlimit:10;"/><path d="M514.029,1572.79l0,122.179" style="fill:none;stroke:#fef7ea;stroke-width:16.67px;"/><path d="M551.529,2225.87l-37.5,37.5l-37.5,-37.5" style="fill:none;stroke:#fef7ea;stroke-width:16.67px;stroke-linejoin:miter;stroke-miterlimit:10;"/><path d="M514.029,2141.19l0,122.179" style="fill:none;stroke:#fef7ea;stroke-width:16.67px;"/><text x="177.861px" y="414.549px" style="font-family:'Arial-BoldMT', 'Arial', sans-serif;font-weight:700;font-size:58.333px;fill:#df9827;">China</text><g><path d="M289.98,561.279c-0.173,0.008 -0.334,0.087 -0.44,0.217c-0.011,0.054 -0.011,0.109 0,0.163c-0.564,0.206 -1.147,0.358 -1.743,0.453l-1.474,0c-0.498,0 -0.727,0 -0.9,0.345c-0.029,0.076 -0.029,0.159 0,0.235c-1.474,0 -1.665,0.399 -1.742,0.526c-0.135,0.185 -0.135,0.431 0,0.616l-0.115,0l-1.283,1.413c-0.113,0.11 -0.157,0.269 -0.115,0.417l0.268,1.142c0,0 0,0.29 0.269,0.906c0.268,0.616 1.78,1.214 2.431,1.341l0.211,0l2.527,-0.49c0.099,-0.019 0.191,-0.063 0.268,-0.126l0.9,-0.852l0.88,-0.417c0.129,-0.065 0.225,-0.176 0.268,-0.308l0.766,-2.483c0.276,-0.104 0.511,-0.288 0.67,-0.525c0.317,-0.429 0.317,-1.003 0,-1.432c-0.421,-0.308 -1.11,-1.141 -1.646,-1.141Z" style="fill:#df9827;fill-rule:nonzero;stroke:#df9827;stroke-width:2.08px;stroke-linecap:butt;stroke-miterlimit:2;"/><path d="M343.53,452.078c-0.256,-0.582 -0.436,-1.19 -0.536,-1.813c-0.011,-0.047 -0.011,-0.097 0,-0.145c0.221,-0.548 0.221,-1.155 0,-1.703c-0.068,-0.243 -0.106,-0.492 -0.115,-0.743c0.15,-0.366 0.336,-0.718 0.556,-1.051c0.344,-0.598 0.536,-0.906 0.516,-1.196c-0.019,-0.324 -0.306,-0.581 -0.649,-0.581c-0.014,0 -0.027,0 -0.04,0.001c-0.908,0.077 -1.706,0.611 -2.087,1.395c0,0.182 -0.478,0.254 -0.823,0.254l-0.134,0c-0.187,-0.029 -0.375,0.049 -0.479,0.199l-0.785,1.07c-0.689,0.924 -1.589,2.174 -1.742,2.428c-0.777,0.368 -1.61,0.618 -2.47,0.743c-0.329,0.054 -0.661,0.084 -0.995,0.091c-0.134,0.006 -0.268,0.006 -0.402,0c-0.388,-0.517 -0.68,-1.094 -0.862,-1.704c-0.555,-1.957 -1.014,-2.048 -1.244,-2.066l-0.958,0c-0.831,-0.006 -1.655,-0.153 -2.431,-0.435c-0.389,-0.17 -0.816,-0.251 -1.244,-0.235c-0.502,0.011 -1.001,0.059 -1.494,0.145c-0.494,0.075 -0.999,0.075 -1.493,0c-0.771,-0.749 -1.416,-1.605 -1.915,-2.537c-0.468,-0.821 -1.026,-1.592 -1.665,-2.302c-0.441,-0.478 -1.01,-0.835 -1.647,-1.033l-1.436,-2.645c-0.061,-0.1 -0.155,-0.176 -0.268,-0.218c-0.402,-0.169 -0.792,-0.363 -1.168,-0.58l0,-0.725c-0.026,-0.148 -0.116,-0.279 -0.249,-0.362c-0.704,-0.491 -1.54,-0.786 -2.412,-0.852c-0.46,0.091 -1.532,0.163 -1.915,0.2c-0.541,-0.43 -1.21,-0.69 -1.914,-0.743c-0.171,-0.027 -0.346,-0.027 -0.517,0l-0.345,0.126l-0.842,0.327l-0.115,0l-0.996,0.398c-0.344,0.127 -0.67,0.254 -0.995,0.345l-0.268,0l-0.517,0.126l-0.421,0.109c-0.571,0.116 -1.088,0.402 -1.475,0.816c-0.52,0.403 -0.972,0.88 -1.34,1.413c-0.21,0.307 -0.316,0.667 -0.306,1.033c0.172,0.979 0.995,1.25 1.551,0.997c0.224,0.364 0.38,0.763 0.459,1.178c-0.391,0.661 -0.819,1.302 -1.283,1.921c-0.01,0.059 -0.01,0.121 0,0.181c-0.341,1.436 -0.559,2.897 -0.651,4.367c-0.772,1.209 -1.691,2.328 -2.737,3.334c-0.273,-0.198 -0.597,-0.323 -0.938,-0.362l-0.211,0c-0.21,-0.04 -0.416,-0.101 -0.613,-0.181c-0.247,-0.086 -0.504,-0.147 -0.766,-0.181c-0.101,-0.019 -0.205,-0.019 -0.306,0c-0.097,0.017 -0.188,0.054 -0.268,0.108c-0.528,1.024 -0.889,2.118 -1.072,3.244c-0.322,1.053 -0.534,2.133 -0.632,3.226c0.005,0.03 0.005,0.06 0,0.09c0.006,0.055 0.006,0.109 0,0.163c-0.23,0.345 -0.593,0.925 -0.153,1.36c0.073,0.057 0.137,0.125 0.191,0.199c0.359,0.468 0.871,0.812 1.455,0.978c0.517,0 0.766,-0.434 0.9,-0.688c0.047,-0.091 0.104,-0.176 0.173,-0.254c0.286,-0.042 0.56,-0.141 0.804,-0.29c0.229,-0.127 0.306,-0.181 0.478,-0.127c0.195,0.08 0.381,0.177 0.556,0.29c0.284,0.221 0.63,0.359 0.995,0.399c0.156,-0.006 0.307,-0.05 0.441,-0.127c0.258,-0.163 0.459,-0.397 0.574,-0.67c0.287,-0.49 0.498,-0.798 0.976,-0.798c0.479,0 0.804,0.145 0.843,0.181c0.041,0.088 0.108,0.163 0.191,0.218l3.389,2.247c0.216,0.337 0.31,0.731 0.268,1.124c-0.189,0.04 -0.385,0.04 -0.574,0l-0.766,0c-0.627,-0.16 -1.288,-0.16 -1.915,0c-0.766,0.353 -1.553,0.668 -2.355,0.942c-0.459,0 -0.612,0.344 -0.785,0.743c-0.047,0.139 -0.112,0.273 -0.191,0.399c-0.187,-0.051 -0.38,-0.082 -0.574,-0.091c-0.392,-0.002 -0.759,0.182 -0.977,0.489c-0.246,0.427 -0.427,0.884 -0.536,1.359c-0.08,0.432 -0.235,0.849 -0.459,1.233c-0.836,0.626 -1.792,1.094 -2.815,1.377c-0.874,0.083 -1.663,0.536 -2.144,1.232c-0.087,0.152 -0.164,0.31 -0.23,0.471c-0.383,0.888 -0.823,1.667 -1.742,1.432c-0.795,-0.195 -1.57,-0.456 -2.317,-0.779c-0.371,-0.205 -0.781,-0.341 -1.206,-0.399l-0.019,0c-0.095,-0.012 -0.192,-0.012 -0.287,0c-1.204,0.53 -2.007,1.645 -2.087,2.899c-0.072,1.002 0.463,1.959 1.378,2.465c-0.506,0.272 -0.981,0.594 -1.417,0.96c-0.414,0.422 -0.762,0.898 -1.033,1.414c-0.364,0.616 -0.881,1.468 -1.264,1.468c-1.095,0.17 -2.109,0.65 -2.91,1.377l-2.393,0c-1.358,-0.091 -2.722,0.026 -4.04,0.344c-1.225,0.508 -5.284,2.519 -5.38,2.592c-0.269,0.085 -0.544,0.152 -0.823,0.199c-0.079,-0.298 -0.136,-0.601 -0.173,-0.906c-0.023,-0.189 -0.156,-0.35 -0.344,-0.417c-0.199,-0.058 -0.416,-0.001 -0.555,0.145c-0.316,0.371 -0.743,0.643 -1.226,0.779c-0.511,-0.16 -1.01,-0.354 -1.493,-0.58c-0.788,-0.367 -1.608,-0.67 -2.451,-0.906l-0.766,-0.126l-0.995,-0.852c-0.066,-0.054 -0.145,-0.092 -0.23,-0.109c-1.709,-0.379 -3.453,-0.603 -5.207,-0.67c-0.326,-0.021 -0.652,-0.021 -0.977,0c-0.551,0.076 -1.108,0.112 -1.666,0.108c-0.775,0 -1.549,-0.054 -2.316,-0.163c-0.46,-0.145 -1.283,-0.417 -1.915,-0.598l-0.287,0c-0.401,-0.3 -0.906,-0.448 -1.417,-0.417l-0.153,0c-0.415,0.012 -0.825,0.098 -1.206,0.254l-2.106,-4.476c0.13,-0.246 0.17,-0.527 0.115,-0.797c-0.051,-0.235 -0.204,-0.439 -0.421,-0.562c-0.341,-0.171 -0.728,-0.24 -1.111,-0.199c-0.358,0.045 -0.723,-0.025 -1.034,-0.2c-0.153,-0.127 -0.402,-0.398 -0.689,-0.706l-0.402,-0.399c-0.587,-0.803 -1.404,-1.432 -2.355,-1.812c-0.414,-0.029 -0.83,-0.029 -1.244,0c-1.321,0 -3.83,-0.145 -4.5,-0.906c-0.67,-0.761 -0.651,-1.088 -0.478,-1.251l0.306,-0.217l0.115,-0.055c0.466,-0.257 0.778,-0.707 0.842,-1.214l0,-0.398c0.215,-0.912 0.142,-1.864 -0.21,-2.737c-0.246,-0.69 -0.425,-1.399 -0.536,-2.12c-0.173,-0.997 -0.249,-1.432 -0.594,-1.631c-0.085,-0.042 -0.163,-0.097 -0.23,-0.163c-0.343,-0.319 -0.787,-0.522 -1.263,-0.58l-0.115,0c-0.129,-0.029 -0.252,-0.078 -0.364,-0.145c-0.272,-0.145 -0.561,-0.261 -0.861,-0.344c-0.447,-0.163 -0.783,-0.522 -0.9,-0.961c-0.041,-0.139 -0.099,-0.272 -0.173,-0.398c-0.233,-0.361 -0.531,-0.68 -0.88,-0.943l0,-0.543c0.115,-0.707 0.229,-1.305 -0.23,-1.595c-0.4,-0.147 -0.844,-0.147 -1.245,0l-0.344,0.091l-0.153,0c-0.498,-0.245 -1.092,-0.245 -1.589,0c-0.332,0.287 -0.515,0.698 -0.498,1.123c-0.023,0.184 -0.062,0.366 -0.115,0.544c-0.339,0.076 -0.686,0.112 -1.034,0.108c-0.976,0 -1.914,0.109 -2.259,0.671c-0.096,0.146 -0.167,0.305 -0.211,0.471c-0.203,0.859 -0.331,1.731 -0.383,2.61c0,0.326 0,0.706 -0.095,0.851c-0.565,0.379 -1.226,0.61 -1.915,0.671c-0.724,-0.269 -1.406,-0.629 -2.029,-1.069c-1.053,-0.635 -1.455,-0.852 -1.781,-0.852c-0.325,0 -0.785,0 -4.001,5.636c-0.017,0.065 -0.017,0.134 0,0.199c-0.018,0.066 -0.018,0.134 0,0.2c0.067,0.207 0.118,0.419 0.153,0.634l-0.747,-0.218c-0.675,-0.26 -1.383,-0.437 -2.106,-0.525c-0.495,0.039 -0.98,0.156 -1.436,0.344c-0.331,0.132 -0.678,0.223 -1.034,0.272c-0.165,-0.017 -0.332,-0.017 -0.497,0c-0.356,-0.039 -0.708,0.106 -0.919,0.38c-0.162,0.257 -0.162,0.578 0,0.834c0.294,0.561 0.369,1.204 0.21,1.812c-0.129,0.753 -0.063,1.524 0.192,2.247c0.11,0.366 0.175,0.743 0.191,1.124c0,0.308 -0.287,0.471 -0.632,0.707l-0.287,0.199l-0.211,0.163c-0.601,0.321 -1.033,0.867 -1.187,1.504c-0.028,0.241 -0.028,0.484 0,0.725c0,0.67 0,0.924 -0.842,1.033c-0.508,0.061 -1.023,0.061 -1.532,0c-0.266,-0.036 -0.537,-0.036 -0.804,0c-0.466,0.111 -0.916,0.275 -1.34,0.489c-0.569,0.264 -1.158,0.488 -1.761,0.671c-0.171,0.063 -0.353,0.094 -0.536,0.09l-2.872,0c-0.441,0 -0.67,0.381 -1.072,0.997c-0.153,0.26 -0.325,0.508 -0.517,0.743l-0.556,0c-0.343,0.039 -0.69,0.039 -1.033,0l-0.173,0c-0.191,-0.652 -0.651,-1.087 -1.168,-1.087l-0.555,0c-0.172,-0.011 -0.345,-0.011 -0.517,0c-0.278,-0.015 -0.55,0.084 -0.746,0.272c-0.408,0.164 -0.831,0.291 -1.264,0.38c-0.682,0.121 -1.332,0.368 -1.915,0.725c-0.274,0.29 -0.471,0.638 -0.574,1.015c-0.009,0.066 -0.009,0.133 0,0.199c-0.399,0.526 -0.595,1.166 -0.555,1.812c0.039,0.647 0,0 -0.268,0.236c-0.142,0.1 -0.27,0.215 -0.383,0.344c-0.111,0.123 -0.207,0.256 -0.287,0.399c-0.13,0.202 -0.196,0.434 -0.192,0.67c-0.011,0.06 -0.011,0.122 0,0.182c0.057,0.208 0.203,0.385 0.402,0.489c0.088,0.056 0.185,0.099 0.287,0.127c0.493,0.092 1.001,0.092 1.494,0l0.383,0c0.392,1.442 0.547,2.934 0.459,4.421l-0.402,0c-0.861,0.182 -1.455,0.363 -1.589,0.816c-0.081,0.248 0.002,0.52 0.211,0.688c0.26,0.239 0.565,0.429 0.899,0.562c0.232,0.095 0.451,0.217 0.651,0.363c0.171,0.133 0.308,0.3 0.402,0.489c0.148,0.294 0.398,0.531 0.709,0.67l0.115,0c0.306,0.109 0.306,0.109 0.325,0.309c0.021,0.21 0.021,0.423 0,0.634c-0.134,0.688 -0.306,1.522 0.268,2.011l0.996,0.725c0.393,0.257 0.77,0.536 1.129,0.834l0.307,0.38c0.248,0.47 0.731,0.791 1.283,0.852c0.152,0.022 0.307,0.022 0.459,0c0.287,0 0.747,0.417 0.881,0.616c0.134,0.199 0,0.163 0,0.272l0,1.268c0.008,0.585 0.232,1.149 0.632,1.595c0.252,0.21 0.528,0.392 0.823,0.544l0.421,0.235c-0.111,0.073 -0.234,0.128 -0.364,0.164c-0.505,0.08 -0.893,0.477 -0.938,0.96l0,0.29c0.021,0.607 0.078,1.212 0.172,1.812l0,0.145c0.383,0.707 0.785,1.812 0.536,2.229c-0.121,0.211 -0.23,0.429 -0.325,0.652c-0.059,-0.125 -0.091,-0.261 -0.096,-0.398c0,-0.308 -0.268,-0.635 -0.842,-0.635c-0.333,-0.013 -0.655,0.113 -0.881,0.345c-0.171,0.197 -0.235,0.459 -0.172,0.707c0.136,0.743 0.225,1.493 0.268,2.247c0.015,0.223 0.015,0.447 0,0.67c-0.144,0.511 -0.144,1.048 0,1.559c0.153,0.344 0.747,0.833 2.144,1.957c0.814,0.593 1.576,1.248 2.279,1.957c0.321,0.398 0.751,0.705 1.244,0.888l0.115,0c-0.067,0.727 0.497,1.383 1.263,1.468c0.159,0.027 0.321,0.027 0.479,0c0.296,-0.178 0.534,-0.429 0.689,-0.725c0.115,-0.163 0.23,-0.381 0.326,-0.399c0.281,-0.052 0.57,0.063 0.727,0.29c0.278,0.83 0.863,1.538 1.647,1.993c0.643,0.4 1.252,0.849 1.819,1.341c0.344,1.722 0.9,1.813 1.091,1.813l1.053,0c0.056,0.166 0.101,0.335 0.134,0.507c0.037,0.269 0.114,0.531 0.23,0.779c0,0.109 0.249,0.471 2.431,1.541c0.158,0.071 0.341,0.071 0.498,0l0.134,0l0,0.126c-0.115,0.345 -0.306,1.088 0.402,1.378c0.392,0.123 0.815,0.123 1.206,0l0.115,0l0,0.344c-0.018,0.338 0.055,0.674 0.211,0.979c0.056,0.089 0.135,0.164 0.23,0.217c0.113,0.024 0.231,0.024 0.344,0c0.322,-0.027 0.607,-0.213 0.747,-0.489c0.109,0.165 0.252,0.306 0.421,0.417c0.354,0.193 0.777,0.239 1.168,0.126l0.345,0c0.134,0 0.363,0.2 0.536,0.327c0.197,0.182 0.431,0.324 0.689,0.416c0.496,0.058 0.997,0.058 1.493,0l3.466,0c0.014,0.084 0.014,0.17 0,0.254c0,0.308 0,0.562 -0.115,0.743c-0.096,0.489 -0.211,1.142 0.708,1.323c0.679,0.249 1.456,-0.036 1.781,-0.652c0,-0.164 0.134,-0.309 0.191,-0.454c0.062,-0.278 0.233,-0.524 0.479,-0.688c0.449,-0.405 0.984,-0.714 1.57,-0.906l0.306,0c0.102,0.019 0.2,0.055 0.287,0.109l0.575,0.235l0.153,0c-0.031,0.168 0.018,0.341 0.134,0.471c0.186,0.117 0.41,0.168 0.632,0.145l0.765,0c0.438,-0.001 0.874,0.041 1.302,0.127c0.249,0 0.288,0.145 0.288,0.544c0.074,0.657 0.502,1.233 1.129,1.522c0.628,0.289 0.249,0.236 0.211,1.504l0,0.272c-0.031,0.227 0.038,0.457 0.191,0.634c0.24,0.19 0.55,0.282 0.862,0.254l4.403,0c0.77,-0.219 1.442,-0.671 1.915,-1.287c0.242,-0.49 0.72,-0.842 1.283,-0.942c0.936,-0.169 1.763,-0.684 2.297,-1.432c0.49,-0.287 1.051,-0.45 1.627,-0.471l0.154,0l0.861,0.163c0.602,0.054 1.191,0.201 1.742,0.435c0.214,0.145 0.407,0.316 0.575,0.508c0.25,0.346 0.65,0.572 1.091,0.616c0.158,-0.004 0.313,-0.035 0.46,-0.091c0.58,-0.372 1.016,-0.913 1.244,-1.54c0.066,-0.154 0.149,-0.299 0.249,-0.435c0.11,-0.161 0.296,-0.262 0.498,-0.272l0.574,0.707c0.031,-0.008 0.064,-0.008 0.096,0c0.079,0.1 0.143,0.21 0.191,0.326c0.011,0.072 0.011,0.145 0,0.217l0,0.453c-0.079,0.354 0.004,0.724 0.23,1.015c0.182,0.186 0.442,0.286 0.708,0.272l0.69,0c0.296,1.265 0.296,2.577 0,3.842c-0.223,0.485 -0.321,1.012 -0.288,1.54c-0.11,0.176 -0.231,0.346 -0.363,0.508c-0.154,0.187 -0.288,0.387 -0.402,0.598l-0.249,0c-0.364,0 -0.766,0.108 -0.9,0.435c-0.134,0.326 -0.536,0.616 -0.957,1.051l-0.173,0.181c-0.108,0.106 -0.157,0.253 -0.134,0.398c0.037,0.223 0.037,0.449 0,0.671c-0.311,0.161 -0.514,0.462 -0.536,0.797c-0.068,0.408 0.067,0.822 0.364,1.124c0.083,0.084 0.13,0.193 0.134,0.308c-0.012,0.063 -0.054,0.117 -0.115,0.145c-0.345,0.19 -0.518,0.575 -0.421,0.942c0.198,0.358 0.591,0.583 1.017,0.583c0.216,0 0.428,-0.058 0.61,-0.166l1.379,-0.598c0.331,0.031 0.664,0.031 0.995,0c-0.1,0.111 -0.155,0.253 -0.153,0.399c0.087,1.062 0.413,2.094 0.957,3.026c0.285,0.182 0.615,0.288 0.958,0.308l0.555,0c0.098,0.45 0.051,0.917 -0.134,1.341c-0.402,0.58 -1.072,1.522 -0.498,2.084c0.268,0.254 0.709,0.272 1.474,0.29l0.766,0c0.139,0.385 0.319,0.755 0.536,1.105c0.021,0.055 0.062,0.1 0.115,0.127c0.53,0.471 1.197,0.781 1.915,0.888c0.166,0.001 0.33,-0.036 0.478,-0.109c0.38,-0.183 0.77,-0.347 1.168,-0.489c0.399,-0.142 0,0.109 0,0.145l0,0.308c0.052,0.337 0.228,0.645 0.498,0.87c0.081,0.062 0.171,0.111 0.268,0.145c0.217,0.101 0.472,0.101 0.689,0c0.204,0.337 0.568,0.561 0.977,0.598c0.126,0.026 0.256,0.026 0.383,0c0.804,-0.344 0.44,-1.178 0.325,-1.45l0,-0.181c0.211,-0.96 0.287,-1.576 0,-1.939c-0.218,-0.379 -0.343,-0.801 -0.364,-1.232c0.273,-0.046 0.551,-0.046 0.824,0c0.369,0.036 0.741,0.036 1.11,0c0.427,-0.083 0.792,-0.342 0.996,-0.707l0,-0.127c0.228,0.051 0.452,0.117 0.67,0.2c0.35,0.14 0.73,0.202 1.11,0.181c0.242,-0.028 0.452,-0.172 0.555,-0.381c0.092,0.215 0.272,0.385 0.498,0.471c0.288,0.135 0.64,0.05 0.823,-0.199c0.173,0.328 0.514,0.549 0.9,0.58l0.115,0c0.575,0 0.689,-0.652 0.766,-1.033c-0.007,-0.06 -0.007,-0.121 0,-0.181c0.214,0.208 0.499,0.336 0.804,0.362c0.107,0.027 0.219,0.027 0.326,0c0.246,-0.103 0.448,-0.282 0.574,-0.507c0,-0.145 0,-0.145 0.191,-0.163c0.709,0 0.9,-0.761 1.015,-1.269c0,-0.163 0.115,-0.398 0.172,-0.507c0.215,-0.042 0.437,-0.042 0.651,0l0.881,0.489l0.153,0.109l0.153,0l0.307,0.163l0.096,0c0.91,0.407 1.903,0.623 2.91,0.634c0,0.2 -0.153,0.526 -0.192,0.671c-0.537,1.092 -0.154,2.405 0.9,3.08c0.47,0.404 1.071,0.647 1.704,0.689l0.498,0.109c0.267,0.074 0.545,0.11 0.823,0.108c0.257,-0.026 0.516,0.018 0.747,0.127l0.268,0.363c0.148,0.365 0.549,0.585 0.957,0.525c0.576,-0.166 1.134,-0.385 1.666,-0.652c0.19,-0.094 0.303,-0.287 0.287,-0.489c-0.01,-0.06 -0.01,-0.122 0,-0.182c0.252,0.23 0.573,0.382 0.919,0.435c0.312,0.036 0.575,0.242 0.67,0.526c0.029,0.281 0.277,0.499 0.574,0.507c0.326,0 0.536,-0.235 0.805,-0.543c0.113,-0.145 0.241,-0.278 0.382,-0.399c0.301,-0.104 0.618,-0.159 0.939,-0.163l0.038,0c-0.025,0.058 -0.057,0.113 -0.096,0.163c-0.372,0.533 -0.503,1.187 -0.364,1.812c0.1,0.548 0.46,1.023 0.977,1.287c-0.023,0.181 -0.075,0.358 -0.153,0.525c-0.059,0.134 -0.059,0.284 0,0.417c0.063,0.126 0.182,0.219 0.325,0.254c0.405,0.114 0.823,0.181 1.245,0.199c0.612,0 0.861,-0.254 0.957,-0.471c0.04,-0.073 0.099,-0.136 0.172,-0.181c0.23,-0.207 0.378,-0.482 0.421,-0.78l0,-0.199c0.009,-0.072 0.009,-0.145 0,-0.217c-0.325,-1.069 -0.88,-1.305 -1.302,-1.305l-0.134,0c-0.016,-0.041 -0.016,-0.086 0,-0.127c0.09,-0.172 0.154,-0.355 0.192,-0.544l0,-0.126c0.208,0.08 0.442,0.08 0.651,0c0.129,-0.029 0.252,-0.078 0.364,-0.145l0.363,-0.2c0.326,-0.217 0.441,-0.272 0.651,-0.272l0.134,0c0.352,0.206 0.798,0.206 1.149,0l0.172,-0.108c0.422,-0.272 0.517,-0.308 0.9,-0.254c0.726,0.054 1.438,-0.222 1.915,-0.743c0.156,-0.042 0.322,-0.042 0.478,0c0.262,-0.022 0.524,-0.022 0.785,0l0.249,0c0.173,0 0.613,0 0.632,-0.707l0,-0.108c0.16,-0.057 0.328,-0.087 0.498,-0.091c0.304,0.008 0.599,-0.096 0.823,-0.29c0.185,-0.199 0.275,-0.461 0.249,-0.725l0,-0.109c0.542,-0.573 0.999,-1.213 1.359,-1.902c0.766,0.924 1.187,1.341 1.666,1.341c0.486,-0.025 0.961,-0.142 1.398,-0.345l0.478,-0.163c0.459,-0.245 0.852,-0.586 1.149,-0.996l0.402,-0.435c0.457,0.259 0.98,0.396 1.513,0.398c0.459,0 0.555,-0.525 0.631,-0.815c0.256,0.213 0.579,0.34 0.919,0.362c0.319,-0.011 0.619,-0.149 0.824,-0.38c0.177,-0.202 0.383,-0.379 0.612,-0.526l0.326,0c0.421,-0.244 0.745,-0.614 0.919,-1.051c0.058,-0.109 0.103,-0.225 0.134,-0.344c0.126,-0.079 0.231,-0.184 0.306,-0.308c0.002,-0.156 -0.031,-0.31 -0.096,-0.453l0.134,0c0.23,0 0.69,-0.218 1.168,-0.381l1.341,-0.489c0.155,-0.069 0.269,-0.203 0.306,-0.363c0.119,-0.634 0.345,-1.246 0.67,-1.812l0.574,-0.253c0.44,-0.119 0.834,-0.359 1.13,-0.689c0.095,-0.176 0.095,-0.386 0,-0.562l0,-0.109l0.23,0c0.461,-0.255 0.808,-0.661 0.976,-1.141l0.306,0c0.082,0.017 0.167,0.017 0.249,0c0.402,-0.127 0.422,-0.526 0.441,-0.852c0.019,-0.326 0,-0.254 0,-0.344c0.402,-0.127 1.244,-0.417 1.493,-0.526c0.17,-0.085 0.29,-0.238 0.326,-0.417c0.025,-0.27 -0.117,-0.532 -0.364,-0.67c-0.088,-0.074 -0.171,-0.153 -0.249,-0.236c0.029,-0.229 0.087,-0.454 0.172,-0.67c0.143,-0.275 0.197,-0.584 0.153,-0.888c0,-0.344 -0.421,-0.453 -0.67,-0.526c0.202,-0.176 0.435,-0.317 0.69,-0.416c0.155,-0.07 0.269,-0.204 0.306,-0.363c0.033,-0.157 -0.017,-0.319 -0.134,-0.435l0.21,0c0.188,0.006 0.367,-0.075 0.479,-0.217c0.151,-0.227 0.218,-0.495 0.192,-0.761c-0.031,-0.132 -0.031,-0.268 0,-0.399c0.193,-0.281 0.418,-0.543 0.67,-0.779c0.222,-0.207 0.409,-0.446 0.555,-0.707c0.086,-0.352 0.086,-0.718 0,-1.069l0,-0.471c0.214,-0.764 0.509,-1.504 0.881,-2.211c0.082,0.178 0.233,0.32 0.421,0.398c0.107,0.019 0.218,0.019 0.325,0c0.418,-0.042 0.799,-0.245 1.053,-0.561c0.243,-0.251 0.397,-0.568 0.441,-0.906c0.019,-0.053 0.019,-0.111 0,-0.163c-0.036,-0.237 -0.166,-0.451 -0.364,-0.599c0,-0.199 0.555,-1.431 0,-1.92c0.481,-0.494 0.748,-1.141 0.746,-1.813c0.01,-0.248 -0.132,-0.48 -0.363,-0.598l0.172,-0.163c0.118,-0.122 0.167,-0.29 0.134,-0.453c-0.035,-0.165 -0.158,-0.303 -0.325,-0.362l-0.345,-0.127l-0.9,-0.362c-0.214,-0.124 -0.414,-0.27 -0.593,-0.435c-0.402,-0.363 -0.747,-0.671 -1.168,-0.671c-0.108,-0.016 -0.218,-0.016 -0.326,0c-0.234,0.148 -0.446,0.325 -0.632,0.526c-0.138,0.152 -0.292,0.292 -0.459,0.416c0.347,-0.279 0.645,-0.609 0.881,-0.978l0.574,-0.689c1.359,-0.326 1.704,-0.561 1.915,-0.761c0.153,-0.252 0.153,-0.563 0,-0.815c-0.249,-0.661 -0.787,-1.189 -1.475,-1.45c-0.213,-0.078 -0.418,-0.175 -0.612,-0.29c-0.576,-0.349 -1.233,-0.56 -1.915,-0.616c-0.061,0.026 -0.131,0.026 -0.191,0c-0.073,-0.109 -0.112,-0.234 -0.115,-0.363c0.338,0.008 0.674,0.063 0.995,0.164l0.268,0c0.567,0.261 1.175,0.432 1.8,0.507c0.032,0.004 0.065,0.006 0.098,0.006c0.38,0 0.699,-0.282 0.725,-0.64c0,-0.2 0.096,-0.834 -2.642,-2.755c-0.158,-0.091 -0.358,-0.091 -0.517,0c-0.217,0.133 -0.457,0.231 -0.708,0.29c-0.116,-0.408 -0.174,-0.828 -0.172,-1.25c0.009,-0.054 0.009,-0.109 0,-0.163l0,-0.109c-0.785,-1.124 -1.609,-2.428 -2.126,-3.334c-0.006,-0.043 -0.006,-0.085 0,-0.127c-0.107,-0.419 -0.288,-0.817 -0.536,-1.178c-0.229,-0.634 -1.282,-0.888 -2.374,-1.142c-0.435,-0.086 -0.864,-0.201 -1.282,-0.344c0.012,-0.203 0.05,-0.404 0.114,-0.598c0.357,-0.999 0.798,-1.969 1.321,-2.9c0.045,0.01 0.09,0.01 0.135,0l0.153,-0.145c0.21,-0.29 0,-0.598 0,-0.906c0.008,-0.042 0.008,-0.085 0,-0.127c0.352,-0.139 0.718,-0.248 1.091,-0.326l0.191,0c0.383,0 0.498,-0.29 0.671,-0.725c0.119,-0.333 0.273,-0.655 0.459,-0.96c0.195,-0.12 0.381,-0.253 0.555,-0.399c0.171,-0.155 0.357,-0.294 0.555,-0.417c0.392,-0.055 0.745,-0.258 0.977,-0.561c0.111,-0.124 0.233,-0.239 0.364,-0.345c0.266,0.13 0.562,0.198 0.861,0.2c0.506,0.059 0.989,-0.231 1.149,-0.689c0.11,-0.28 0.11,-0.589 0,-0.87l0,-0.181c0.267,-0.344 0.346,-0.789 0.211,-1.196c-0.09,-0.242 -0.309,-0.422 -0.575,-0.471l-0.153,0c-0.474,0.049 -0.942,0.14 -1.398,0.272l-1.244,0.29l-0.651,-0.272c-1.13,-0.508 -2.029,-0.834 -2.566,-0.58c-0.794,0.365 -1.488,0.898 -2.029,1.558l-0.287,0c-0.336,-0.009 -0.659,0.124 -0.881,0.363c-0.08,0.118 -0.12,0.258 -0.115,0.398c0.013,0.211 0.059,0.418 0.134,0.617l0,0.181l-0.632,0c-0.488,0.001 -0.975,-0.042 -1.455,-0.127c0.134,-0.942 0.345,-2.338 -0.612,-2.573c-0.248,-0.036 -0.5,-0.036 -0.747,0l-2.259,0l-1.283,-1.595c0,-0.453 0.115,-0.779 0.172,-1.033c0.096,-0.157 0.269,-0.26 0.46,-0.272c0.247,0.124 0.525,0.18 0.804,0.163l0.517,0c0.804,-0.099 1.572,-0.379 2.24,-0.815c0.238,-0.328 0.383,-0.709 0.421,-1.106c0.06,-0.364 0.177,-0.718 0.345,-1.051l0,-0.09c0.383,-0.272 0.689,-0.544 0.995,-0.798l0.23,-0.199c0.185,-0.088 0.343,-0.219 0.46,-0.38c0.084,-0.073 0.156,-0.159 0.21,-0.254l0.23,-0.381l0.23,-0.507c0,-0.181 0.191,-0.381 0.287,-0.616l0.268,-0.58c0.1,-0.248 0.215,-0.49 0.345,-0.725c0.248,-0.113 0.512,-0.193 0.785,-0.236l0.459,0c0.232,-0.05 0.432,-0.188 0.555,-0.38c0.189,0.167 0.387,0.325 0.594,0.471c0.161,0.118 0.315,0.245 0.459,0.381c0.145,0.135 0,0 0,0.108l0,0.163c-0.089,0.565 -0.224,1.122 -0.402,1.668c-0.022,0.079 -0.061,0.153 -0.115,0.217l-0.191,0.145c-0.359,0.173 -0.585,0.523 -0.585,0.904c0,0.179 0.05,0.355 0.145,0.509c0.048,0.197 0.048,0.402 0,0.599c-0.149,0.543 0.045,1.122 0.497,1.485c0.518,0.388 1.068,0.733 1.647,1.033c0.082,0.019 0.167,0.019 0.249,0c0.069,0.019 0.142,0.019 0.21,0c0.153,-0.054 0.267,-0.176 0.307,-0.326c0.138,-0.736 0.403,-1.447 0.785,-2.102c0.388,-0.249 0.759,-0.521 1.11,-0.815c0.584,-0.508 1.226,-0.952 1.915,-1.323c0.197,0.013 0.396,0.013 0.593,0c0.67,-0.145 1.474,-0.508 1.628,-1.015c0.021,-0.054 0.054,-0.103 0.095,-0.145c0.049,-0.057 0.094,-0.118 0.134,-0.181c0.479,-0.616 1.436,-1.704 2.183,-2.537l0.364,-0.399l0.497,-0.507c0.454,-0.586 0.78,-1.251 0.958,-1.957c0,-0.164 0.134,-0.363 0.23,-0.58c0.205,-0.59 0.468,-1.16 0.784,-1.704l0.154,0.272c0.104,0.354 0.361,0.65 0.708,0.815c0.485,0.131 0.989,0.192 1.493,0.182c1.015,0 1.57,-0.2 1.743,-0.635c0.009,-0.054 0.009,-0.109 0,-0.163c0.01,-0.066 0.01,-0.133 0,-0.199c0.005,-0.502 -0.093,-1.001 -0.288,-1.468c0.355,-0.152 0.678,-0.36 0.958,-0.616c0.88,-0.779 2.202,-2.175 2.24,-2.229c0.092,-0.093 0.14,-0.217 0.134,-0.344c-0.01,-0.079 -0.01,-0.158 0,-0.236c-0.008,-0.475 0.076,-0.948 0.249,-1.395l0.172,0.163c0.131,0.111 0.253,0.232 0.364,0.362l0.23,0.236c0.173,0.221 0.424,0.375 0.708,0.435c0.689,0 0.747,-0.743 0.766,-1.106c-0.011,-0.102 -0.011,-0.205 0,-0.308c0.268,-0.29 0.823,-1.014 0.919,-1.159c0.078,-0.099 0.112,-0.223 0.095,-0.345c-0.19,-1.331 -0.465,-2.65 -0.823,-3.95l0,-0.236c-0.006,-0.084 -0.006,-0.169 0,-0.254l0,-0.09l-0.096,-0.218l0,-0.09c0.268,-0.385 0.37,-0.851 0.288,-1.305l-0.192,-0.181c-0.305,-0.268 -0.587,-0.559 -0.842,-0.87l0,-0.109c0.338,-0.342 0.652,-0.705 0.938,-1.087l0.517,-0.634l0.708,0c0.411,0.07 0.827,0.112 1.245,0.127c0.361,0.025 0.721,-0.071 1.014,-0.272c0.9,-0.653 1.398,-6.361 1.111,-7.249c-0.211,-0.272 -0.345,-0.598 -0.479,-0.96Z" style="fill:#df9827;fill-rule:nonzero;stroke:#df9827;stroke-width:2.08px;stroke-linecap:butt;stroke-miterlimit:2;"/></g><path d="M334.972,1718.17c-0.48,-0.231 -3.087,4.828 -3.383,5.267c-1.18,-0.728 -4.426,-8.415 -6.612,-6.603c-1.623,-2.256 -0.053,-3.738 -0.27,-6.086c-0.194,-2.118 -2.336,-3.799 -3.104,-5.487c-0.523,-1.15 0.323,-2.627 -0.161,-3.75c-0.398,-0.927 -1.373,-1.476 -2.091,-2.381c-1.247,-1.573 -1.052,-3.298 -2.55,-4.853c-0.878,-0.911 -1.738,-1.51 -2.323,-2.602c-1.825,-3.417 -0.374,-7.352 -1.414,-10.899c-0.757,-2.588 -1.141,-4.972 -1.163,-7.717c-0.024,-3.07 -1.589,-4.06 -3.746,-6.294c-0.882,-0.912 -1.29,-2.021 -2.479,-2.735c-1.007,-0.607 -2.304,-0.63 -3.263,-1.071c-2.201,-1.014 -4.267,-2.752 -5.931,-4.357c-2.36,-2.278 -2.83,-3.621 -3.212,-6.616c-0.352,-2.786 0.588,-3.373 3.037,-4.38c2.879,-1.183 2.548,-1.534 3.08,-3.943c0.462,-2.079 2.52,-4.03 5.014,-4.562c2.544,-0.544 5.946,2.267 6.048,-1.724c0.015,-0.597 -0.83,-1.586 -0.884,-2.423c-0.065,-1.034 0.762,-2.015 0.773,-2.951c0.031,-2.489 -1.791,-1.653 -4.257,-1.58c-2.372,0.069 -3.928,0.431 -6.04,0.79c-2.595,0.439 -12.101,-1.675 -12.587,-3.688c-0.299,-1.243 1.417,-4.173 2.111,-4.807c1.697,-1.551 3.484,-1.705 4.187,-4.39c0.424,-1.612 1.863,-4.457 1.578,-6.071c-0.327,-1.843 -2.44,-2.277 -2.013,-4.52c2.021,1.597 1.822,-0.517 2.479,-1.563c0.731,-1.167 0.532,-1.464 2.575,-0.799c-0.043,1.223 2.998,2.422 3.804,3.712c1.132,1.817 -0.513,2.591 0.225,4.354c0.274,0.658 3.281,3.078 3.966,3.313c0.309,0.106 6.179,0.231 6.298,0.103c0.934,-0.999 -2.416,-2.243 -2.632,-3.193c-0.668,-2.938 2.446,-0.938 3.723,-0.27c3.625,1.899 6.742,3.91 10.903,4.175c-0.772,-3.333 2.73,-1.222 3.704,0.218c1.353,2 1.697,3.933 2.134,6.114c0.518,2.586 1.035,5.046 2.288,7.359c0.323,0.6 1.33,2.063 1.412,2.567c0.158,0.986 -0.605,2.406 -0.629,3.482c1.119,0.145 2.278,0.504 3.199,1.051c1.124,-0.866 4.277,-1.833 5.851,-1.187c1.698,0.697 1.476,2.953 3.479,3.727c2.186,0.845 2.977,-0.074 4.835,-0.79c2.337,-0.9 5.041,-0.625 7.494,-0.444c4.545,0.334 9.063,-0.362 13.731,0.04c3.329,0.286 9.621,0.881 12.755,-0.53c-0.018,0.378 0.309,0.789 0.315,1.111c0.538,-0.398 1.126,-0.415 1.517,-0.96c0.094,0.328 0.48,0.616 0.58,0.96c1.575,-0.881 3.596,0.608 4.781,1.596c1.483,1.234 2.226,1.967 4.175,2.802c-1.368,1.215 -1.981,1.876 -2.816,3.195c-1.415,2.234 -1.325,4.113 -2.239,6.426c-0.851,2.158 -1.588,4.318 -2.598,6.503c-4.098,0.374 -2.583,4.022 -4.561,5.567c-2.37,1.852 -2.85,-1.859 -5.584,-1.39c-2.339,0.4 -3.327,3.54 -4.462,4.946c-0.73,0.902 -2.196,1.665 -2.583,2.558c-0.38,0.875 0.281,4.032 1.377,4.374c0.056,0.871 -0.354,2.38 0.018,3.155c0.562,1.169 0.832,0.64 1.634,1.147c2.049,1.294 3.801,2.68 5.595,4.248c1.395,1.22 4.109,1.853 5.14,3.274c0.692,0.954 -0.296,2.121 1.379,2.556c0.871,-1.266 1.693,-3.872 -0.622,-4.177c0.871,-0.795 1.195,-1.858 1.117,-2.917c1.61,0.378 1.585,-1.139 2.058,-1.984c0.397,-0.709 1.47,-2.117 1.359,-2.932c-0.477,0.019 -0.866,-0.262 -1.325,-0.262c-0.339,-1.409 1.232,-1.553 2.058,-2.552c0.737,0.358 1.712,1.102 2.559,1.214c1.403,0.185 2.255,-0.474 3.54,-0.059c2.92,0.947 4.645,4.223 5.344,6.522c0.786,2.583 0.989,4.6 1.169,7.156c0.173,2.441 1.863,3.939 2.524,6.103c0.856,2.8 -1.001,5.144 0.385,7.915c1.483,2.962 3.72,6.626 4.308,9.83c0.142,0.778 -0.169,1.627 0.158,2.385c0.218,0.506 1.768,1.281 2.063,2.201c0.554,1.731 0.294,4.831 -0.187,6.531c-0.307,1.087 -1.643,4.093 -3.011,1.981c-2.734,1.749 -5.922,4.349 -6.526,7.287c-0.616,2.983 0.175,5.794 0.418,8.669c-0.102,0.019 -1.124,0.025 -1.314,-0.005c-0.366,-4.074 -3.349,-7.104 -6.303,-10.09c-1.338,-1.351 -3.296,-3.163 -2.862,-4.735c0.424,-1.531 3.229,-3.197 1.697,-4.847c-0.981,1.171 -2.438,2.661 -3.733,3.537c-2.071,-1.679 0.592,-3.627 -0.209,-5.728c1.593,-0.218 1.033,-2.474 -0.454,-2.428c-0.372,-2.88 1.588,-5.479 1.095,-8.435c-3.099,-0.039 -4.833,-5.94 -5.775,-7.929c-1.281,-2.701 -1.409,-7.964 -5.97,-8.109c-0.103,1.469 -1.969,0.885 -3.11,1.198c-1.599,0.439 -2.749,2.148 -4.465,2.132c-1.889,-0.017 -8.328,-3.796 -9.48,-4.921c-1.059,1.142 -1.582,0.318 -2.635,-0.134c-0.544,-0.232 -2.516,-1.119 -2.92,-1.471c-1.848,-1.611 -2.33,-4.202 -4.656,-6.022c-0.142,4.336 7.743,8.542 4.568,12.559c-1.459,-0.252 -3.227,1.116 -4.593,1.648c2.111,1.179 3.144,2.081 4.355,4.1c1.323,2.204 1.804,3.817 1.647,6.297c-2.6,0.674 -3.551,1.379 -5.073,3.126c-1.143,1.312 -3.45,5.019 -5.176,5.196c-3.575,0.367 -1.775,-3.055 -1.122,-4.373c0.828,-1.668 3.644,-2.249 3.227,-4.087c-2.748,-0.372 -5.434,3.152 -6.253,5.045c-0.467,-2.39 -2.65,-2.629 -2.615,-5.04c0.019,-1.362 3.695,-6.845 1.043,-7.475c-0.311,2.137 -0.427,6.761 -3.27,7.48c0.837,1.599 3.582,6.319 2.709,8.062c-0.435,0.867 -2.772,1.93 -3.684,1.772c-0.749,-0.14 -2.801,-1.891 -3.665,-2.308Z" style="fill:#df9827;fill-rule:nonzero;stroke:#df9827;stroke-width:1px;stroke-linecap:butt;stroke-miterlimit:2;"/><path d="M394.039,1703.68c2.541,-1.236 -1.084,-6.678 -2.092,-8.499c2.213,0.434 5.119,3.583 6.248,5.129c1.207,1.653 0.771,1.687 -0.129,3.191c-0.706,1.182 -1.513,3.323 -2.441,4.249c-1.662,-0.982 -1.664,-3.047 -0.85,-4.407c0.07,0.292 0.08,0.92 0.057,1.234" style="fill:#df9827;fill-rule:nonzero;stroke:#df9827;stroke-width:1px;stroke-linecap:butt;stroke-miterlimit:2;"/><path d="M402.23,1696.06c-0.615,1.576 0.266,4.156 1.351,5.59c2.523,-1.084 4.341,-2.11 2.348,-4.657c-0.858,-1.099 -1.945,-1.607 -3.657,-1.363c0.057,0.965 -0.384,1.624 -1.363,1.776" style="fill:#df9827;fill-rule:nonzero;stroke:#df9827;stroke-width:1px;stroke-linecap:butt;stroke-miterlimit:2;"/><path d="M381.621,1695.16c0.169,3.573 1.378,5.902 4.023,8.948c0.682,-0.281 2.648,-0.821 3.115,-1.363c0.875,-1.014 0.751,-6.652 -0.057,-7.558c-1.403,-1.579 -5.421,-1.742 -6.563,0.119c0.009,-0.422 0.013,-0.844 0.013,-1.267" style="fill:#df9827;fill-rule:nonzero;stroke:#df9827;stroke-width:1px;stroke-linecap:butt;stroke-miterlimit:2;"/><g transform="matrix(1.53846,0,0,1.53846,-0.68197,1371.36)"><text x="28.467px" y="111.023px" style="font-family:'ArialMT', 'Arial', sans-serif;font-size:32.5px;fill:#df9827;">transported to</text><text x="36.631px" y="144.587px" style="font-family:'Arial-BoldMT', 'Arial', sans-serif;font-weight:700;font-size:32.5px;fill:#df9827;">Bangladesh</text></g><g transform="matrix(1.53846,0,0,1.53846,850.684,374.253)"><text x="41.915px" y="111.023px" style="font-family:'Arial-BoldMT', 'Arial', sans-serif;font-weight:700;font-size:43.333px;fill:#fef7ea;">Emissions are</text><text x="-36.235px" y="170.607px" style="font-family:'Arial-BoldMT', 'Arial', sans-serif;font-weight:700;font-size:43.333px;fill:#fef7ea;">generated throughout</text><text x="-22.99px" y="230.19px" style="font-family:'Arial-BoldMT', 'Arial', sans-serif;font-weight:700;font-size:43.333px;fill:#fef7ea;">production, from the</text><text x="-1.408px" y="289.773px" style="font-family:'Arial-BoldMT', 'Arial', sans-serif;font-weight:700;font-size:43.333px;fill:#fef7ea;">machinery used in</text><text x="-14.653px" y="349.357px" style="font-family:'Arial-BoldMT', 'Arial', sans-serif;font-weight:700;font-size:43.333px;fill:#fef7ea;">each process to the</text><text x="41.989px" y="408.94px" style="font-family:'Arial-BoldMT', 'Arial', sans-serif;font-weight:700;font-size:43.333px;fill:#fef7ea;">transportation</text><text x="27.485px" y="468.523px" style="font-family:'Arial-BoldMT', 'Arial', sans-serif;font-weight:700;font-size:43.333px;fill:#fef7ea;">between stages</text></g><g transform="matrix(1.53846,0,0,1.53846,630.171,1358.16)"><text x="90.051px" y="111.023px" style="font-family:'Arial-BoldMT', 'Arial', sans-serif;font-weight:700;font-size:43.333px;fill:#fef7ea;">Emissions are counted</text><text x="98.515px" y="170.607px" style="font-family:'Arial-BoldMT', 'Arial', sans-serif;font-weight:700;font-size:43.333px;fill:#fef7ea;">in the statistics of  the</text><text x="104.545px" y="230.19px" style="font-family:'Arial-BoldMT', 'Arial', sans-serif;font-weight:700;font-size:43.333px;fill:#fef7ea;">country in which they</text><text x="185.15px" y="289.773px" style="font-family:'Arial-BoldMT', 'Arial', sans-serif;font-weight:700;font-size:43.333px;fill:#fef7ea;">are generated</text></g><g transform="matrix(1.53846,0,0,1.53846,997.871,2287.07)"><text x="-16.943px" y="111.023px" style="font-family:'Arial-BoldMT', 'Arial', sans-serif;font-weight:700;font-size:43.333px;fill:#fef7ea;">Only after this</text><text x="-74.749px" y="170.607px" style="font-family:'Arial-BoldMT', 'Arial', sans-serif;font-weight:700;font-size:43.333px;fill:#fef7ea;">point are emissions</text><text x="-83.128px" y="230.19px" style="font-family:'Arial-BoldMT', 'Arial', sans-serif;font-weight:700;font-size:43.333px;fill:#fef7ea;">counted towards the</text><text x="-19.715px" y="289.773px" style="font-family:'Arial-BoldMT', 'Arial', sans-serif;font-weight:700;font-size:43.333px;fill:#fef7ea;">UK&apos;s statistics</text></g><path d="M816.044,2355.17l10.819,-19.267l19.267,10.82" style="fill:none;stroke:#fef7ea;stroke-width:10.42px;stroke-linejoin:miter;stroke-miterlimit:10;"/><path d="M931.326,2445.47c0,0 -77.622,-20.577 -104.463,-109.566" style="fill:none;stroke:#fef7ea;stroke-width:10.42px;"/><g><path d="M427.323,2244.7c0.734,0.156 1.375,0.911 2.158,0.839c0.815,-0.073 1.178,-0.964 1.828,-1.368c0.784,-0.488 1.775,-0.565 2.602,-0.98c0.821,-0.412 1.182,-0.739 2.091,-0.676c1.932,0.134 0.958,0.088 1.633,-1.342c0.479,-1.021 2.477,-1.923 3.6,-1.808c-0.087,-0.028 0.721,-1.172 0.77,-1.604c0.041,-0.362 -0.011,-1.613 -0.538,-1.695c0.242,-0.341 0.97,-0.353 0.955,-0.859c-0.028,-0.883 -1.21,-0.443 -1.718,-0.37c-1.66,0.238 -3.163,0.415 -4.799,0.388c0.49,-0.079 1.212,-0.157 1.217,-0.291c0.276,-0.891 -1.563,-1.097 -2.044,-1.166c0.052,0.235 -0.226,0.577 -0.122,0.377c-0.643,0.002 0.209,0.589 -0.382,0.685c0.095,-0.049 0.114,-0.116 0.06,-0.203c-0.457,0.672 -0.707,0.168 -0.677,0.097c-0.313,0.25 -0.981,-0.621 -1.16,-0.035c0.311,-0.786 2.752,-0.692 1.375,-1.399c-1.361,-0.699 -2.47,-0.073 -1.966,-0.363c0.529,-0.305 1.379,-0.108 1.81,-0.431c-0.221,-0.146 -0.463,-0.247 -0.722,-0.301c0.494,-0.037 2.493,0.269 3.294,-0.47c0.461,-0.425 0.767,-1.378 -0.193,-0.65c-0.128,-0.556 1.276,-0.971 1.052,-1.762c-0.313,-1.104 -1.796,-0.138 -2.3,0.294c0.466,-0.371 -0.05,-0.407 -0.373,-0.386c0.262,-0.129 -0.027,-0.176 -0.218,-0.19c0.313,0.158 1.82,-0.361 2.003,-0.492c-0.132,-0.057 -0.242,-0.142 -0.331,-0.253c0.256,0.182 0.275,0.01 0.539,0.041c-0.059,-0.073 -0.38,-0.391 0.132,-0.415c-0.337,0.53 0.546,0.405 0.734,0.161c0.541,-0.7 -1.135,0.084 -0.548,-0.479c0.028,0.062 0.013,0.121 -0.047,0.175c0.063,-0.057 0.292,-0.203 0.652,-0.075c-0.125,-0.156 -0.287,-0.239 -0.486,-0.253c0.424,0.087 0.405,-0.063 0.252,-0.473c0.18,0.349 1.008,1.203 0.601,1.006c0.501,1.549 3.369,-1.143 2.454,-1.606c0.315,0.318 -0.551,0.071 -0.644,0.044c0.431,-0.339 0.7,-0.583 0.94,-1.101c-0.673,0.131 -1.79,0.353 -2.402,-0.057c0.134,-0.014 2.16,-0.05 2.152,-0.04c0.427,-0.516 -0.918,-0.991 -1.099,-1.311c0.64,0.51 1.618,0.689 1.653,1.683c0.223,-0.403 1.139,-0.899 0.41,-1.335c0.19,0.073 0.315,0.207 0.374,0.403c0.412,-0.243 0.438,-0.759 0.793,-1.053c0.361,-0.299 0.869,-0.349 1.183,-0.714c0.506,-0.59 0.35,-1.462 0.414,-2.168c0.212,-2.321 1.601,-3.974 1.17,-6.388c-0.581,-3.263 -4.361,-7.4 -8.062,-6.678c0.077,0.241 0.48,0.019 0.749,0.16c-1.18,0.046 -2.058,0.003 -3.186,-0.117c0.075,-0.03 0.151,-0.057 0.226,-0.087c-0.313,-0.142 -0.638,-0.186 -0.975,-0.13c0.087,0.059 0.174,0.059 0.262,0c-0.488,0.493 -1.209,0.033 -1.747,0.396c-0.373,0.252 -0.472,0.8 -0.596,1.191c-0.09,0.288 -0.095,0.671 -0.254,0.933c-0.248,0.414 -0.81,0.383 -0.634,1.007c-0.247,-0.419 -1.493,-0.763 -1.947,-1.109c-0.707,-0.539 -1.085,-0.975 -2.048,-0.657c0.923,-0.421 1.207,-1.751 1.951,-2.41c0.883,-0.784 1.778,-1.029 1.894,-2.334c0.15,-1.688 -0.926,-3.857 -1.66,-4.832c-0.189,-0.577 -0.326,-0.897 -0.73,-0.863c-0.034,-0.286 -0.146,-0.387 -0.175,-0.118c-0.612,-0.161 -0.795,-0.772 -1.273,-1.083c-0.408,-0.266 -0.549,-0.229 -0.903,-0.38c0.201,-0.059 -1.115,-1.035 -1.24,-1.172c-0.613,-0.678 -0.497,-1.269 -1.592,-1.203c-0.476,0.03 -0.873,0.369 -1.351,0.388c-0.387,0.016 -0.697,-0.25 -1.055,-0.242c-1.22,0.025 -0.504,0.303 -1.272,1.113c0.429,-0.539 0.09,-1.429 -0.671,-1.036c1.041,-0.669 2.124,-0.101 3.243,-0.299c1.064,-0.188 1.758,-0.913 2.658,0.005c0.762,0.777 0.555,1.368 1.808,1.366c0.466,-0.002 0.753,-0.309 1.245,-0.092c0.505,0.224 0.945,0.741 0.352,1.213c1.506,-0.883 -1.329,-3.586 -1.851,-4.321c-0.958,-1.349 -2.784,-4.613 -0.205,-5.288c0.151,-0.04 -1.22,-0.822 -1.191,-0.804c-0.293,-0.167 -1.364,-0.638 -0.678,-1.059c-2.141,-0.666 -2.004,-3.833 -3.636,-5.1c-1.038,-0.805 -5.189,-1.274 -5.46,-2.63c-0.087,0.608 -0.264,0.897 -0.792,1.226c0.3,-0.146 0.62,-0.515 0.478,-0.88c-0.113,0.049 -0.226,0.097 -0.339,0.144c0.613,-0.333 -0.042,-1.024 0.243,-1.354c-1.225,-0.652 -1.596,-2.225 -1.816,-3.483c-0.089,-0.51 -0.058,-2.345 -0.988,-2.067c0.72,-0.348 -0.813,-2.955 -1.34,-2.965c1.142,0.465 0.228,-3.042 -0.382,-3.284c0.173,-0.099 0.313,-0.059 0.417,0.123c-0.694,-0.448 -0.278,-2.583 -0.53,-3.422c-0.112,-0.372 -0.225,-1.001 -0.504,-1.28c-0.28,-0.278 -1.061,-0.239 -1.195,-0.427c0.122,-0.031 0.244,-0.063 0.367,-0.092c-0.205,-0.198 -0.374,-0.424 -0.506,-0.678c-0.014,0.994 -1.096,-0.805 -1.236,-0.881c0.108,0.099 0.247,0.13 0.418,0.093c-0.671,-0.191 -0.876,-1.258 -1.619,-1.267c0.134,-0.028 0.266,-0.028 0.4,0c-0.574,-1.801 -1.403,-2.621 -3.144,-3.111c-0.769,-0.216 -1.191,-0.701 -1.892,-1.003c-0.25,-0.108 -0.558,-0.139 -0.789,-0.251c-1.079,-0.511 -0.127,0.383 -0.516,-0.342c0.026,0.087 0.07,0.167 0.127,0.236c-0.438,-0.697 -1.026,-1.1 -1.881,-0.989c-0.354,0.047 -1.413,0.336 -0.905,0.864c-0.51,-0.034 -1.109,0.876 -1.631,1.003c-0.749,0.183 -1.224,-0.142 -1.806,-0.591c0.052,0.068 0.104,0.136 0.156,0.204c-0.368,0.109 -1.126,-0.146 -1.724,-0.19c-0.744,-0.055 -1.462,-0.172 -2.197,-0.278c-0.315,-0.092 -0.636,-0.13 -0.965,-0.115c-0.525,0.308 -0.679,0.178 -0.467,-0.389c-0.188,0.023 -0.183,0.16 -0.223,0.219c0.268,-0.405 -1.383,-1.152 -1.554,-1.78c0.292,0.289 0.869,0.77 1.231,0.951c0.363,0.182 1.038,0.139 1.337,0.429c0.271,-0.287 0.745,0.051 1.281,0.268c0.754,0.308 0.551,0.181 1.284,-0.026c0.93,-0.261 1.539,-0.591 2.199,-1.306c0.563,-0.61 1.224,-1.806 2.157,-1.915c0.663,-0.078 0.89,0.342 1.653,0.156c0.496,-0.121 1.443,-0.572 1.659,-1.062c0.655,-1.484 -1.718,-1.098 -2.032,-2.171c-0.204,0.33 -0.694,0.056 -0.967,0.244c0.398,-0.306 1.003,-0.393 1.06,-0.97c0.077,-0.777 -0.512,-0.894 -1.136,-0.842c-1.553,0.131 -2.589,1.789 -4.179,1.928c0.2,-0.311 -0.495,-0.527 -0.619,-0.636c1.116,0.473 1.573,-0.071 2.409,-0.675c1.149,-0.827 1.982,-0.7 3.329,-0.855c1.933,-0.221 3.701,-2.689 4.099,-4.535c-0.438,0.104 -0.824,0.019 -1.08,-0.332c0.108,0.242 0.569,0.057 0.635,0.023c0.111,-0.059 0.184,-0.049 0.441,-0.242c0.119,-0.156 0.113,-0.29 -0.014,-0.401c0.138,-0.067 0.275,-0.133 0.411,-0.2c0.382,-0.428 0.822,-0.708 1.154,-1.207c0.567,-0.848 0.746,-1.761 1.074,-2.703c0.4,-1.149 1.149,-2.159 1.486,-3.328c-0.29,-0.277 -0.365,0.149 -0.313,-0.466c0.037,-0.419 0.141,-0.661 0.292,-1.061c0.252,-0.672 0.717,-1.418 0.527,-2.172c0.023,0.128 0.047,0.259 0.07,0.387c0.58,-0.805 1.383,-1.529 1.821,-2.428c0.193,-0.396 0.256,-1.283 0.468,-1.199c-0.311,-1.422 -1.003,-3.819 -2.783,-3.96c-0.8,-0.063 -1.7,0.318 -2.529,0.328c-1.111,0.014 -1.971,0.233 -3.117,0.087c-1.686,-0.215 -2.88,-0.474 -4.577,-0.057c-0.431,0.106 -0.857,0.148 -0.975,0.125c-0.394,-0.073 -0.784,-0.29 -1.142,-0.457c-0.208,-0.097 -0.606,-0.515 -0.528,-0.177c-0.165,-0.558 -1.78,-0.146 -2.131,0.047c-0.504,0.276 -0.461,1.051 -1.579,0.816c0.251,0.068 0.371,0.209 0.362,0.423c-0.12,0.115 -0.452,0.062 -0.596,0.057c0.54,-0.433 -0.475,-0.413 -0.723,-0.285c0.078,-0.014 0.156,-0.026 0.234,-0.04c-0.144,0.242 -0.351,0.407 -0.619,0.496c0.096,-0.096 0.192,-0.19 0.287,-0.285c-0.959,0.493 -1.701,1.588 -2.88,0.886c0.017,0.096 0.209,0.153 0.417,0.243c-0.488,-0.153 -0.77,-0.175 -1.244,0.106c0.785,0.202 -0.32,1.224 -0.571,1.403c-0.921,0.654 -2,0.532 -3.068,0.358c-0.031,-0.005 0.558,-0.285 0.656,-0.302c0.394,-0.07 0.657,0.233 1.065,0.059c0.421,-0.179 0.995,-0.824 0.15,-0.876c0.655,0.224 0.987,-0.706 1.644,-0.48c-0.683,-0.586 0.346,-0.911 0.589,-1.312c0.447,-0.736 0.395,-0.574 -0.173,-0.652c-0.169,-0.023 -0.558,0.182 -0.762,0.196c-0.311,0.021 -0.603,-0.165 -0.914,-0.113c-0.939,0.155 -1.817,1.248 -2.385,1.923c0.81,-0.629 0.843,-1.692 1.818,-2.175c0.444,-0.219 0.977,-0.137 1.436,-0.353c0.436,-0.203 0.695,-0.629 1.212,-0.686c-0.458,1.152 0.33,0.568 0.791,0.163c0.705,-0.619 1.668,-1.764 1.654,-2.738c-0.293,0.06 -1.522,0.906 -1.776,1.097c0.095,-0.111 0.191,-0.224 0.288,-0.335c-0.745,-0.483 -1.594,0.652 -2.254,-0.303c0.021,0.099 0.076,0.179 0.165,0.237c-0.384,0.151 -2.456,-0.647 -2.394,-1.088c0.315,0.342 1.845,0.822 2.192,0.328c0.186,0.537 -0.22,0.169 0.445,0.273c0.331,0.052 0.433,-0.351 0.878,-0.076c-0.139,-0.492 0.028,-0.908 -0.121,-1.395c-0.087,-0.281 -0.536,0.023 -0.618,-0.497c0.374,0.355 0.967,-0.168 0.659,0.393c0.762,-0.035 1.926,-1.888 2.423,-2.371c1.028,-1.001 2.319,-1.635 3.24,-2.757c0.465,-0.565 0.767,-1.124 1.384,-1.552c0.556,-0.384 1.205,-0.547 1.714,-1.015c0.614,-0.563 1.446,-2.147 1.377,-3.061c-1.511,0.617 0.062,-2.806 0.278,-3.271c-0.666,-0.223 -1.787,-0.099 -2.475,-0.19c-0.016,0.005 -1.148,-0.193 -1.03,-0.219c-1.169,0.266 0.583,0.843 -0.332,1.224c-1.037,0.431 -2.101,-0.581 -3.281,0.01c-0.626,0.313 -3.296,1.686 -3.301,-0.024c-0.242,0.301 -0.421,0.634 -0.539,1.001c-0.155,-0.094 -0.308,-0.191 -0.459,-0.294c-0.219,0.124 -0.436,0.249 -0.652,0.378c-0.419,0.116 -0.789,0.126 -0.49,0.684c-0.111,-0.255 -0.262,-0.281 -0.452,-0.083c0.21,-0.643 -0.718,-0.356 -0.986,-0.224c-0.637,0.318 -0.867,1.144 -1.19,1.722c0.094,-0.923 0.926,-1.453 0.075,-2.296c-1.254,-1.237 -1.127,0.204 -1.528,0.888c-0.014,-0.074 -0.028,-0.149 -0.044,-0.224c-0.688,0.318 -0.716,1.233 -1.453,1.507c0.276,-0.448 1.144,-1.225 1.034,-1.766c-0.064,-0.318 -1.072,-1.23 -1.392,-1.26c0.311,0.285 0.04,1.451 -0.191,1.703c0.019,-0.198 -0.054,-0.239 -0.218,-0.126c1.459,-1.097 -1.569,-1.873 -1.783,-2.095c-0.141,0.407 -0.073,0.88 -0.289,1.264c-0.215,0.377 -0.792,0.618 -0.853,1.093c-0.073,0.572 0.621,0.751 0.372,1.013c0.478,0.139 0.676,0.199 0.897,0.657c-0.268,-0.398 -1.286,-0.745 -1.306,0.033c0.155,0.009 0.294,0.06 0.418,0.152c-0.134,0.022 -0.266,0.043 -0.4,0.066c0.274,0.043 0.549,0.062 0.825,0.057c-0.125,0.052 -0.248,0.106 -0.373,0.158c0.175,0.115 0.314,0.265 0.417,0.449c-0.223,-0.103 -1.01,-0.473 -1.262,-0.32c-0.553,0.335 0.132,0.64 -0.322,0.883c0.199,0.351 0.03,0.733 0.444,0.506c0.245,0.339 -0.066,0.375 -0.113,0.521c0.292,0.052 0.509,0.598 0.773,0.725c0.499,0.242 1.08,0.07 1.612,0.151c-0.261,-0.015 -0.517,0.018 -0.765,0.099c0.149,0.162 0.297,0.324 0.443,0.489c-0.405,-0.049 -0.426,-0.44 -0.692,-0.556c-0.045,-0.021 -0.523,-0.021 -0.652,-0.039c-0.403,-0.054 -0.928,-0.457 -0.935,0.28c-0.408,-0.464 -1.168,-0.005 -1.446,0.365c-0.099,-0.377 -0.495,-0.466 -0.669,-0.787c-0.537,0.4 0.354,2.103 0.957,1.95c-0.584,0.301 0.207,0.339 0.411,0.24c-0.125,0.247 -0.327,0.349 -0.602,0.306c0.48,0.236 0.468,0.358 -0.034,0.362c0.093,0.132 0.182,0.267 0.269,0.405c-0.137,0.279 -0.252,1.016 -0.643,0.361c-0.162,0.106 -0.221,0.254 -0.174,0.445c-0.103,-0.285 -0.478,-1.05 -0.826,-0.596c-0.426,0.558 0.438,1.02 0.664,1.244c0.216,0.214 1.62,1.935 2.034,1.447c-0.052,0.281 -0.216,0.467 -0.487,0.558c0.689,0.361 1.752,1.159 1.584,2.063c-0.544,-1.139 -1.088,-1.445 -2.154,-1.857c-0.028,-0.01 -1.451,-0.488 -1.288,-0.222c0.456,0.737 1.518,0.794 1.902,1.613c-0.925,-0.368 -2.046,-1.898 -2.429,-0.172c-0.636,-0.269 -1.354,-1.796 -1.891,-1.112c-0.546,0.695 0.339,1.013 0.504,1.547c0.108,0.351 -0.231,1.121 -0.241,0.653c-0.094,0.186 -0.058,0.341 0.113,0.466c-0.685,0.306 -0.755,-2.484 -1.919,-1.947c-0.515,0.238 -0.61,1.667 -0.397,2.103c0.324,0.657 1.579,0.581 1.434,1.466c-0.79,-0.687 -1.444,0.17 -1.256,0.952c0.08,0.332 0.446,0.663 0.645,0.908c0.12,0.147 0.907,0.61 0.403,0.466c0.403,0.843 1.283,-0.072 1.855,0.495c-0.113,-0.111 -0.892,0.584 -1.386,0.057c0.03,0.205 0.058,0.41 0.087,0.616c-0.342,-0.207 -0.551,-0.504 -0.627,-0.892c-0.138,0.089 -0.138,0.186 0,0.292c-0.866,-0.384 -1.139,-1.073 -1.593,0.174c-0.184,0.504 -0.319,1.891 0.557,1.811c-0.209,0.289 -0.219,0.582 -0.026,0.881c-0.096,-0.193 -0.101,0.501 -0.027,0.621c0.11,-0.624 -0.027,0.158 0.24,0.182c0.244,0.021 0.391,-0.061 0.623,-0.116c0.415,-0.103 1.096,-0.709 1.255,-1.107c0.146,0.281 -0.226,1.02 -0.028,1.046c-0.111,0.177 0.699,-0.059 0.723,-0.073c0.467,-0.233 0.556,-0.874 1.038,-1.095c0.01,0.956 -1.386,1.618 -2.177,1.662c0.033,-0.079 0.065,-0.155 0.098,-0.233c-0.652,0.193 -0.803,0.947 -0.367,1.314c0.264,0.222 1.231,0.056 1.61,0.198c0.509,0.193 0.73,0.8 1.376,0.718c-0.921,0.713 -0.676,-0.553 -1.63,-0.638c-0.739,-0.066 -1.153,0.647 -1.233,1.3c-0.104,0.855 0.132,0.84 0.807,1.245c0.275,0.165 0.591,0.518 0.909,0.603c0.422,0.111 0.761,-0.351 1.199,-0.117c-0.486,-0.05 -0.83,0.445 -1.265,0.437c-0.422,-0.009 -0.506,-0.322 -0.862,-0.48c-0.628,-0.278 -1.928,-0.28 -1.968,0.747c-0.026,0.673 0.655,0.607 1.095,0.979c0.24,0.202 0.087,0.522 0.52,0.661c0.41,0.132 0.827,-0.52 1.21,-0.152c-0.842,0.087 -0.927,0.518 -1.735,0.193c-0.624,-0.25 -1.655,-1.208 -1.799,0.237c0.45,0.288 0.295,0.207 0.295,0.207c-0.479,-0.136 -0.858,1.013 -0.295,1.02c-0.276,0.116 -0.513,0.285 -0.711,0.509c0.182,-0.332 1.775,-0.151 2.001,-0.062c-0.325,0.019 -0.551,0.179 -0.68,0.478c0.657,0.245 0.645,-0.28 1.219,-0.303c-0.491,0.419 -3.341,1.422 -0.8,1.704c-0.144,0.005 -1.49,0.227 -1.491,0.207c0.017,0.286 0.42,0.352 0.472,0.658c-0.262,-0.014 -0.401,-0.151 -0.417,-0.412c-0.495,0.485 -0.288,-0.396 -0.692,-0.422c-0.231,-0.014 -1.036,0.269 -1.314,0.323c-0.695,0.138 -2.206,0.518 -1.1,1.497c0.151,0.134 1.789,0.179 2.027,0.203c0.615,0.063 1.097,0.079 1.696,-0.123c0.527,-0.179 0.602,-0.362 1.182,-0.358c0.296,0.002 1.625,0.247 1.848,0.365c-0.655,0.029 -4.49,-0.294 -3.073,1.196c-3.357,-2.303 -0.355,3.356 0.905,1.123c-1.747,2.343 4.268,-0.19 2.272,-1.021c0.871,0.365 1.088,-0.62 1.561,-1.057c0.238,-0.219 0.61,-0.307 0.821,-0.511c0.353,-0.342 0.359,-0.728 0.639,-1.109c0.27,-0.366 1.241,-1.095 1.148,-1.381c-0.122,-0.371 -1.697,-0.07 -2.175,-0.567c0.855,0.203 1.745,0.228 2.585,0.5c-0.722,0.638 -1.396,1.516 -1.688,2.448c1.114,0.141 1.418,0.222 2.576,-0.158c-1.102,0.627 -2.607,0.292 -3.372,1.345c-0.403,0.555 -0.499,1.391 -0.928,1.947c0.262,-0.087 0.417,0.13 0.683,0.137c0.386,0.011 0.751,-0.366 1.065,-0.525c-0.328,0.581 -1.88,0.908 -1.601,0.444c-0.313,-0.021 -0.533,0.735 -0.758,1.048c0.089,-0.002 0.155,-0.04 0.2,-0.118c-0.005,0.08 -0.012,0.158 -0.017,0.238c0.165,-0.174 0.287,-0.374 0.365,-0.6c0.122,0.299 0.16,0.481 0.143,0.803c0.975,-0.295 1.866,0.513 2.652,-0.388c0.334,-0.382 0.412,-1.611 1.149,-1.527c-0.629,-0.007 -0.72,1.199 -1.015,1.571c-0.49,0.619 -0.841,0.587 -1.646,0.532c-0.668,-0.045 -1.231,-0.28 -1.77,0.25c-0.267,0.264 -0.794,1.413 -0.565,1.738c0.244,-0.28 0.536,-0.085 0.757,-0.366c-0.299,0.429 -0.864,0.279 -1.158,0.671c-0.356,0.471 -0.231,1.036 -0.402,1.566c0.697,-0.165 0.737,-0.341 1.186,-0.11c-0.29,0.111 -0.581,0.221 -0.871,0.329c0.499,0.405 -0.233,1.641 -0.504,1.987c0.382,-0.197 0.666,-1.118 1.184,-1.047c-0.228,0.482 -0.743,0.986 -0.619,1.57c0.33,-0.341 0.276,0.452 0.339,0.523c-0.621,-0.951 -1.9,1.872 -1.924,2.39c0.083,-0.137 0.121,-0.172 0.264,-0.247c-0.165,0.217 -0.219,0.322 -0.039,0.574c0.195,-0.464 0.155,-0.942 0.487,-1.353c-0.047,0.126 -0.092,0.249 -0.139,0.374c0.122,-0.071 0.723,-0.834 0.814,-0.933c0.029,-0.033 -0.218,0.04 -0.242,0.028c0.118,-0.08 0.25,-0.134 0.396,-0.16c0.035,-0.025 -0.107,0.245 -0.347,0.452c0.118,-0.075 0.238,-0.152 0.356,-0.226c-0.428,0.644 -1.667,1.781 -1.201,2.675c0.202,-0.393 0.688,-0.769 1.045,-1.01c-0.056,0.37 -1.586,3.289 -0.287,2.738c-0.091,0.186 -0.125,0.382 -0.105,0.587c0.877,-0.12 1.382,-1.203 1.855,-1.82c-0.429,1.269 -1.562,2.088 -2.174,3.247c-0.796,1.511 -0.463,3.301 -1.087,4.869c-0.459,1.154 -1.124,2.305 0.642,2.117c1.199,-0.127 2.875,-1.529 0.921,-2.235c0.76,0.062 1.262,-1.891 1.359,-2.434c0.233,-1.295 -0.215,-2.193 0.744,-3.325c0.353,-0.415 0.821,-0.572 0.835,-1.172c0.013,-0.683 -0.75,-0.87 -0.934,-1.27c-0.271,-0.589 -0.542,-2.495 -0.273,-3.094c0.07,0.231 0.174,0.443 0.313,0.639c0.473,-0.264 0.85,-0.674 0.756,-1.255c0.139,0.155 1.528,-1.392 1.73,-1.583c0.511,-0.487 0.695,-1.319 1.178,-1.745c0.221,0.182 0.447,0.18 0.675,-0.006c0.24,-0.172 0.481,-0.34 0.726,-0.504c-0.938,1.605 -2.892,2.559 -3.832,4.259c-0.468,0.847 -0.625,1.568 -0.482,2.517c0.179,1.18 0.407,0.982 1.337,1.594c0.068,-0.492 -0.282,-0.916 -0.256,-1.406c0.021,-0.386 0.353,-1.024 0.412,-1.499c-0.026,0.471 0.941,1.65 1.13,1.54c0.189,-0.109 -0.554,-1.248 -0.415,-2.068c0.033,0.596 0.761,2.652 1.268,2.684c0.727,0.085 1.149,-2.069 0.395,-2.38c1.055,0.243 0.539,-2.729 0.643,-3.369c0.214,0.378 -0.148,1.123 0.367,1.327c0.433,-0.6 0.581,-1.566 1.288,-1.951c-0.504,0.696 -2.442,3.47 -0.954,4.127c1.293,0.57 -0.176,-1.271 0.021,-1.775c0.199,0.468 0.248,0.939 0.594,1.313c0.167,0.179 1.269,0.472 0.739,0.69c0.852,0.528 2.24,0.634 2.906,1.382c-0.537,-0.755 -2.072,-0.564 -2.88,-0.751c-1.097,-0.256 -1.784,-0.433 -1.895,0.905c-0.036,0.445 0.106,0.89 0.118,1.334c0.021,0.667 -0.394,1.357 -0.323,1.976c0.13,1.13 1.419,1.455 2.168,1.987c-0.058,-0.171 0.733,1.176 0.123,0.985c0.728,1.608 0.476,1.349 -0.568,2.655c-0.982,1.227 -1.116,2.861 -1.958,4.182c-0.738,1.163 -1.496,2.035 -1.098,3.445c0.149,0.53 0.558,2.244 -0.452,0.913c-0.12,-0.16 -0.066,-2.039 -0.98,-1.045c-0.388,0.422 0.034,1.801 0.232,2.235c0.479,1.05 1.554,1.66 1.909,2.797c0.21,0.676 0.045,1.997 1.184,1.528c-0.52,-0.137 -0.164,-0.375 -0.207,-0.634c-0.037,-0.218 -0.188,-0.456 -0.313,-0.771c-0.217,-0.544 -0.723,-1.421 -0.394,-2.011c0.634,-1.14 1.395,-0.537 2.134,0.075c0.862,0.716 1.681,1.669 2.689,2.183c0.287,0.146 0.72,0.449 1.059,0.268c0.57,-0.304 -0.106,-2.022 0.313,-1.863c0.104,-0.478 -0.626,-0.663 -0.741,-1.043c-0.156,-0.517 0.256,-0.769 0.184,-1.271c0.372,1.18 0.934,1.443 2.046,0.902c-0.718,1.034 0.699,1.241 1.165,1.827c0.266,-0.429 -0.056,-0.947 0.374,-1.352c-0.226,0.646 0.014,1.296 0.707,1.389c0.334,0.045 0.946,-0.39 1.147,-0.591c0.43,-0.433 0.762,-0.289 0.157,-0.88c0.073,0.017 0.346,-0.043 0.492,0.049c-0.07,-0.186 -0.086,-0.753 -0.065,-0.828c0.214,0.581 0.261,0.468 0.598,0.459c0.247,-0.017 1.332,-0.16 1.294,-0.146c1.025,-0.372 0.806,-1.538 0.582,-2.494c0.142,0.511 1.561,1.297 1.444,0.318c0.518,0.539 1.573,0.372 2.243,0.349c0.313,-0.01 1.679,-0.281 1.945,-0.069c-0.311,0.029 -0.485,0.205 -0.523,0.532c0.281,-0.098 0.443,-0.014 0.738,0.038c-0.512,-0.068 -0.984,0.219 -1.496,0.181c-0.369,-0.028 -0.426,-0.322 -0.843,-0.258c-1.014,0.155 -0.414,0.682 0.243,0.812c-0.429,-0.106 -0.68,0.221 -0.575,0.621c-0.671,-1.132 -1.193,0.22 -1.438,0.844c-0.445,1.137 -1.072,2.182 -1.5,3.322c-0.329,0.875 -0.829,1.977 -0.563,2.901c0.243,0.843 1.281,1.972 1.978,2.484c0.125,-0.205 -0.012,-0.213 -0.104,-0.432c0.08,0.055 0.22,0.246 0.278,0.298c-0.31,0.704 -0.049,2.392 0.808,2.735c0.528,0.21 1.464,-0.44 1.099,-1.087c0.464,0.59 0.038,1.003 -0.086,1.586c-0.06,0.286 -0.041,1.762 0.27,1.117c-0.063,0.066 0.254,0.543 0.626,0.755c-0.049,-0.993 1.712,-1.945 1.036,-2.966c0.752,0.205 0.231,1.325 1.164,1.264c0.381,-0.024 1.455,-1.186 1.342,-1.547c0.541,0.348 -0.422,0.737 -0.476,1.02c-0.049,0.254 0.304,1.12 0.702,1.062c-0.565,0.831 -1.874,1.537 -0.947,2.455c0.307,-0.282 0.344,-0.553 0.426,-1c0.132,0.325 -0.508,1.274 -0.103,1.434c-1.114,0.405 -1.62,0.484 -1.184,1.818c-0.316,-0.312 -0.521,-0.697 -0.417,-1.152c-0.429,-0.049 -1.587,4.523 1.785,3.266c-0.233,0.174 -0.212,0.334 0.061,0.478c-0.822,-0.441 -1.641,0.456 -1.973,0.923c-0.752,1.061 -0.935,1.698 -0.509,2.922c0.285,0.821 0.669,1.954 1.373,2.502c1.029,0.801 1.547,-0.107 2.641,-0.02c-0.637,0.148 -1.269,1.026 -1.899,1.035c-0.989,0.015 -1.157,-0.991 -1.616,-1.586c-0.329,-0.425 -1.12,-1.335 -1.638,-0.453c-0.332,0.563 0.386,1.362 0.687,1.767c-0.061,-0.055 0.535,1.082 0.315,1.368c-0.57,-0.359 -1.149,-0.745 -1.629,-1.221c-0.235,-0.235 -0.499,-0.824 -0.827,-0.934c-0.364,-0.122 -2.227,0.395 -1.916,0.963c-0.203,-0.485 -1.387,0.12 -1.75,0.083c-0.797,-0.076 -1.431,-0.961 -2.279,-0.717c0.407,0.297 1.043,1.098 0.686,1.639c0.065,-1.413 -1.364,-0.395 -1.887,-0.139c-1.036,0.507 -3.553,0.872 -3.345,2.628c-0.014,-0.118 -0.867,1.418 -1.107,1.683c-0.228,0.25 -1.21,1.576 -1.495,0.943c-0.215,0.341 -2.713,2.66 -1.742,2.898c0.263,-0.867 1.928,-0.793 2.125,0.087c0.683,-0.582 0.297,-1.67 1.411,-1.858c0.568,-0.278 2.75,-0.296 3.516,-0.664c-0.219,0.278 -0.544,0.558 -0.931,0.483c0.111,0.353 0.2,1.604 0.175,1.196c-0.393,0.242 0.033,1.006 0.244,1.217c0.532,0.53 0.843,0.267 1.498,0.281c0.075,-0.052 -1.229,0.845 -0.88,0.409c-0.086,0.765 -1.088,1.646 -0.53,2.449c0.451,0.647 1.042,0.13 1.688,0.341c-0.389,0.1 -0.839,0.777 -1.271,0.372c0.087,2.282 -0.966,4.29 -2.921,5.454c-0.682,0.405 -1.426,1.134 -2.17,1.349c-0.603,0.174 -1.743,-0.283 -1.41,0.836c-0.274,-1.51 -1.868,0.786 -1.531,1.076c-0.605,0.12 -1.135,0.181 -1.733,0.318c0.028,-0.111 0.097,-0.163 0.209,-0.154c-0.499,-1.031 -1.135,0.255 -1.344,0.474c-0.405,0.429 -0.953,0.669 -1.458,0.956c-0.277,0.143 -0.55,0.292 -0.821,0.447c0.228,0.222 0.228,0.448 0,0.678c0.711,-0.082 2.251,-0.325 2.303,0.871c0.026,0.61 -1.006,1.364 -1.623,1.241c0.08,0.054 0.919,1.046 1.039,0.775c0.085,-0.193 -0.203,-0.435 -0.116,-0.621c0.222,0.487 0.657,0.239 0.739,-0.163c-0.294,0.777 1.825,0.631 2.158,0.322c-0.392,0.199 -0.415,0.34 -0.067,0.422c-0.103,-0.054 -0.852,-0.127 -0.842,0.101c0.188,0.042 0.31,0.042 0.57,0.144c-0.418,-0.043 -1.607,-0.417 -1.27,0c-0.308,-0.038 -0.562,-0.313 -0.854,-0.042c0.628,0.258 0.777,1.195 1.467,1.328c0.381,0.073 0.562,-0.17 0.845,-0.281c0.324,-0.127 0.69,-0.245 1.05,-0.372c0.986,-0.346 0.605,-0.65 1.297,-1.276c0.791,-0.716 1.87,0.158 2.637,-0.495c-0.162,-0.259 -0.331,-0.512 -0.506,-0.76c0.288,0.132 0.261,0.49 0.601,0.53c0.374,0.044 0.551,-0.568 0.869,-0.664c-0.789,0.369 -0.161,0.946 0.287,1.259c-1.109,-0.425 -0.358,0.759 0.16,0.938c0.176,0.061 0.598,-0.221 0.953,-0.191c0.462,0.038 0.462,0.521 1.23,0.299c-0.584,0.306 -1.43,1.125 -1.628,0.231c-0.131,0.296 -0.496,0.393 -0.598,0.715c-0.089,0.278 0.179,0.472 -0.134,0.716c0.558,0.137 1.121,0.241 1.681,0.37c-0.306,-0.598 1.578,-0.391 1.82,-0.442c-0.875,-0.655 1.378,-0.754 1.488,-1.044c0.007,0.389 0.015,0.789 0.539,0.77c-0.404,-0.049 0.062,0.952 0.333,1.281c0.247,0.299 0.562,0.311 0.843,0.525c0.124,0.009 0.249,0.017 0.372,0.026c-0.036,0.28 0.061,0.483 0.294,0.608c0.64,0.61 2.952,1.419 3.546,0.643c0.155,-0.038 0.169,0.011 0.042,0.145c0.594,-0.28 1.274,-0.616 0.984,-1.389c0.166,0.141 0.217,0.167 0.262,0.111c0.497,-0.615 2.079,-1.032 1.644,-1.936c0.152,0.215 0.16,0.438 0.027,0.665c0.735,0.261 3.65,-0.305 3.281,-1.491c0.249,0.542 0.379,-0.189 0.838,-0.633c0.421,-0.405 1.693,-1.533 1.756,-1.74c0.038,-0.123 -0.318,-0.212 -0.289,-0.257c0.404,-0.608 0.337,0.096 1.01,-0.215c-0.043,-0.093 -0.087,-0.183 -0.13,-0.275c0.573,0.815 -0.569,0.184 -0.72,0.401c0.058,0.171 0.08,0.204 0.205,0.336c0.442,0.25 -0.911,1.09 -1.017,1.21c-0.851,0.982 -1.3,2.265 -2.134,3.266c-0.019,-0.016 0.078,0.217 0.243,0.349c-1.105,-0.747 -4.1,2.35 -2.958,3.223c-0.115,-0.299 -0.308,-0.549 -0.663,-0.556c0.849,0.417 0.089,2.056 0.183,1.802c-1.476,1.493 -4.408,0.141 -6.009,-0.024c-1.304,-0.134 -2.632,-0.318 -3.946,-0.216c-0.627,0.049 -1.693,0.101 -2.211,0.511c-0.525,0.065 -0.638,0.261 -0.337,0.59c0.005,0.294 -0.144,0.413 -0.45,0.361c0.29,0.416 0.137,1.048 0.69,1.241c0.472,0.166 0.128,0.219 -0.082,0.824c0.302,-0.824 -0.316,-0.372 -0.513,-0.318c-0.186,0.051 -0.285,0.404 -0.474,0.497c-0.642,0.318 -0.484,0.101 -1.064,0.089c-0.683,-0.016 -1.074,-0.389 -1.561,0.325c-0.327,0.482 -0.146,1.29 -0.143,1.829c0.014,1.682 -1.016,2.567 -2.072,3.799c-0.245,0.287 -0.384,0.576 -0.735,0.758c-0.214,0.112 -0.782,0.026 -0.926,0.186c-0.626,0.701 0.434,0.758 0.775,1.115c-0.17,-0.15 -0.859,-0.24 -1.019,-0.033c0.037,-0.253 0.014,-0.499 -0.069,-0.741c-0.251,0.299 -0.614,0.449 -1.001,0.391c0.624,0.683 -0.305,1.964 -0.887,2.175c0.156,0.045 0.313,0.09 0.469,0.137c-0.785,-0.219 -1.142,1.13 -1.507,1.557c-0.32,0.376 -0.702,0.515 -1.084,0.821c-0.518,0.414 -0.682,0.852 -1.106,1.307c-0.808,-1.507 -3.534,0.529 -2.738,1.815c0.393,0.634 0.899,0.374 1.368,-0.042c0.776,-0.688 0.174,-0.972 1.354,-0.647c0.562,0.155 1.219,0.4 1.551,0.89c0.311,0.459 0.118,1.276 0.848,1.368c0.438,0.056 1.313,-0.757 1.361,-1.157c0.157,-1.25 -0.778,-0.372 -1.343,-0.842c0.413,0.169 0.565,0.082 0.453,-0.259c0.023,0.682 1.092,-0.568 1.28,-0.549c-0.134,-0.212 -0.325,-0.344 -0.576,-0.394c0.157,0.003 0.313,0.005 0.468,0.008c-0.077,-0.245 0.313,-0.893 0.089,-1.001c0.246,0.134 0.166,0.725 0.139,1.198c0.12,-0.03 0.222,-0.092 0.304,-0.185c-0.092,0.155 -0.077,0.287 -0.105,0.463c0.583,-0.36 1.285,-2.243 2.184,-1.339c0.13,-0.194 0.949,-3.135 1.331,-1.519c0.15,-0.158 0.327,-0.274 0.532,-0.347c-0.069,0.027 -0.141,0.055 -0.21,0.081c0.504,0.113 4.641,-1.411 4.335,0.285c0.459,-0.12 0.485,-0.368 0.532,-0.798c-0.136,0.058 0.245,0.039 0.704,0.075c0.017,0.011 -0.205,0.756 0.591,0.709c-0.542,0.228 1.083,0.482 1.227,-0.292c-0.269,0.459 0.327,1.038 0.758,0.675c-0.626,0.499 0.441,1.43 0.808,1.229c0.37,-0.204 0.16,-0.927 0.087,-1.085c0.085,0.428 0.174,0.433 0.515,0.21c-0.2,0.086 -0.525,0.487 -0.072,0.395c-0.198,0.049 -0.544,0.353 -0.154,0.488c0.389,0.136 0.742,-0.151 1.13,-0.135c-0.71,-0.753 1.677,-2.677 -0.226,-2.821c0.582,-0.073 0.474,0.104 0.869,0.041c-0.197,0.205 -0.004,0.711 0.349,0.699c0.236,-0.009 0.546,-0.704 0.661,-0.834c-0.207,0.024 -0.873,0.028 -0.75,-0.395c0.096,-0.328 0.414,-0.589 0.767,-0.615c-0.683,-0.44 0.03,-1.396 -1.079,-1.273c0.589,-0.208 1.627,-0.269 1.672,-1.192c0.001,-0.049 -0.473,-1.05 -0.548,-1.271c0.562,1.304 0.692,1.504 1.855,0.713c1.086,-0.74 2.656,-1.345 3.996,-1.387c1.439,-0.045 5.529,1.483 4.744,3.506c0.763,-0.278 0.001,-1.319 0.313,-1.314c-0.562,-0.433 1.787,-0.426 2.059,-0.376c0.616,0.113 1.191,0.572 1.805,0.618c1.046,0.074 0.78,-0.454 1.446,-1.01c-0.322,-0.112 -0.409,-0.322 -0.261,-0.631c-0.41,0.401 -0.573,-0.221 -1.001,0.184c0.275,-0.264 0.249,-0.313 -0.078,-0.143c0.184,-0.064 0.299,-0.189 0.349,-0.37c-0.252,-0.024 -0.473,0.049 -0.66,0.219c0.001,-0.016 0.434,-0.613 0.33,-0.633c-0.019,0.035 0.669,0.263 0.662,0.263c-0.087,-0.129 -0.174,-0.257 -0.261,-0.384c0.256,0.396 0.974,0.316 0.637,0.803c0.611,-0.558 1.602,-0.049 2.2,-0.598c-0.186,0.082 1.262,-0.174 1.977,0.268c-0.81,-0.55 1.456,-1.023 1.646,-1.189c-0.176,-0.098 -0.254,-0.247 -0.235,-0.447c0.15,0.754 0.97,0.073 1.015,-0.219c0.058,-0.376 -1.038,-0.92 -1.258,-1.478c0.243,0.028 0.389,0.162 0.434,0.4c0.169,-0.356 1.314,1.276 0.993,0.028c0.205,0.365 0.158,0.864 0.573,1.21c0.287,0.24 0.885,0.504 1.125,0.38c0.24,-0.121 -0.249,-0.865 -0.391,-0.999c0.794,0.419 2.101,-0.197 2.672,0.242c-0.327,-0.244 0.022,0.38 0.078,0.462c0.052,-0.2 0.045,-0.396 -0.018,-0.593c0.141,0.141 0.277,0.285 0.411,0.435c0.04,-0.139 0.062,-0.282 0.069,-0.428c0.023,0.48 0.4,0.575 0.602,0.118c-0.063,0.734 -1.222,0.221 -0.906,1.085c0.176,0.481 1.347,0.803 1.523,0.176c-0.105,-0.037 -0.209,-0.073 -0.313,-0.11c0.228,-0.302 0.24,-0.118 0.321,0.063c0.817,-0.798 2.377,-0.699 3.413,-0.819c0.281,-0.033 1.985,-0.499 1.507,-0.374c1.022,-0.057 1.993,0.36 2.949,0.661m-73.119,-129.037l-0.034,-0.064c0.279,0.288 0.674,0.401 1.062,0.278c-0.146,0.433 0.41,0.386 0.653,0.419c-0.087,0.021 -0.174,0.043 -0.262,0.064c0.116,0.211 0.283,0.364 0.506,0.459c-0.285,0.018 -0.979,-0.375 -1.229,-0.064c-0.266,0.328 -0.185,0.556 0.271,0.686c-0.125,0.159 -0.499,-0.064 -0.702,0.014c-0.355,0.134 -0.944,0.736 -1.012,1.123c-0.028,-0.33 -0.275,-0.622 -0.636,-0.481c0.151,0.851 1.197,1.524 1.715,2.146c0.098,-0.422 1.055,-0.622 0.513,-0.954c0.018,-0.01 0.412,-0.073 0.111,-0.113c0.228,0.031 0.155,0.184 0.395,0.162c-0.122,-0.593 0.236,-0.44 0.104,-0.735c0.322,0.199 0.209,-0.075 0.185,-0.4c0.052,0.158 0.42,0.528 0.617,0.481c-0.039,-0.172 -0.075,-0.342 -0.113,-0.514c0.147,0.158 0.335,0.264 0.434,0.064c0.018,0.049 0.035,0.099 0.054,0.148c0.094,-0.131 -0.49,-1.399 -0.532,-1.464c0.32,-0.04 0.734,0.419 1.043,0.284c0.41,-0.183 0.422,-0.503 -0.118,-0.644c0.86,-0.087 0.115,-0.841 -0.296,-0.754c0.645,-0.238 -0.163,-0.487 -0.107,-0.73c0.114,-0.509 0.469,-0.767 0.848,-1.168c-0.403,0.662 -0.073,3.017 0.669,2.602c-0.139,-0.28 -0.264,-0.567 -0.374,-0.86c0.079,0.156 0.586,0.881 0.732,1.016c-0.005,-0.093 -0.012,-0.186 -0.017,-0.279c0.453,0.307 0.311,-0.524 0.28,-0.624c0.2,0.9 1.072,0.309 1.01,-0.315c-0.079,-0.782 -0.816,-0.523 -1.384,-0.645c0.761,-0.221 1.481,-0.283 2.009,0.073c0.433,-0.608 0.089,-0.826 -0.512,-0.961c0.909,0.287 0.658,-0.911 0.436,-0.725c0.127,-0.247 0.014,-0.257 -0.045,-0.518c-0.616,0.231 -1.179,0.805 -1.888,0.436c0.082,-0.01 1.834,-0.493 1.491,-0.749c-0.252,0.05 -0.432,-0.047 -0.544,-0.297c0.075,0.043 1.13,0.426 1.245,0.109c-0.044,-0.064 -0.263,-0.121 -0.522,-0.034c0.593,-0.371 0.435,-0.645 0.557,-1.04c-0.093,-0.082 -0.259,0.132 -0.358,0.082c-0.044,-0.177 -0.004,-0.346 0.121,-0.504c0.692,1.185 2.51,0.012 2.613,-1.008c-0.516,0.069 -0.579,0.523 -0.998,0.704c-0.567,0.245 -0.838,0.151 -1.467,0.064c0.874,-0.171 1.114,-2.216 2.228,-2.35c-0.897,-0.357 -0.066,-1.984 -0.419,-2.681c-0.564,-1.116 -1.142,-0.106 -1.752,0.451c-0.676,0.617 -1.385,1.352 -2.193,1.797c-0.913,0.502 -1.791,0.711 -2.582,1.608c0.139,0.038 0.279,0.076 0.418,0.116c-0.732,0.162 1.218,2.15 0.556,2.183c-0.031,-0.372 -0.673,-0.684 -0.53,-0.636c0.073,-0.379 -0.664,-1.236 -1.08,-1.19c-0.017,0.241 0.051,0.45 0.204,0.622c0.024,0.028 -0.197,0.57 0.379,0.478c-0.548,0.476 -0.6,0.761 -0.357,1.643c-0.215,-0.322 -0.219,-1.65 -0.801,-1.52c0.565,-0.247 0.116,-0.467 -0.157,-0.745c-0.193,0.3 -0.678,0.346 -0.679,-0.181c-0.277,0.222 -0.576,0.845 -0.172,1.124c0.245,-0.295 0.179,0.011 0.226,-0.083c0.309,0.365 -0.633,0.151 -0.671,0.196c-0.226,0.266 -0.266,0.692 -0.299,1.021c-0.061,0.593 0.09,2.014 0.857,1.003c-0.092,0.177 -0.197,0.347 -0.315,0.509l0.402,0c-0.152,0.061 -0.303,0.122 -0.452,0.181c0.3,0.452 0.954,-0.096 1.322,-0.099c-0.723,0.276 -1.604,0.622 -1.846,1.217c0.19,-0.02 1.115,0.869 1.189,0.566m10.445,13.313c-0.239,-0.306 -0.637,-0.008 -0.862,0.122c0.953,-0.49 -0.285,-1.083 -0.853,-0.516c0.626,-0.527 0.601,-2.406 -0.365,-1.839c0.069,-0.635 0.57,-1.121 0.681,-1.765c0.098,-0.573 0.054,-1.418 -0.132,-1.971c-0.224,-0.659 -1.394,-2.4 -2.176,-2.421c0.28,0.742 -0.36,0.407 -0.506,0.852c-0.158,0.479 -0.132,1.641 0.428,1.484c-0.371,0.88 0.215,1.789 0.177,1.886c-0.018,0.047 0.016,0.266 0.05,0.27c-0.234,-0.27 -0.361,-0.809 -0.603,-0.965c-0.028,0.413 -0.448,0.626 -0.365,1.069c-0.151,-0.318 -0.12,-0.619 0.096,-0.899c-0.998,0.968 -1.363,-1.597 -2.229,-1.705c0.032,0.424 -0.026,0.836 -0.174,1.234c0.265,-0.429 0.944,0.694 0.88,0.947c-0.181,-0.285 -0.415,-0.34 -0.704,-0.17c0.169,0.25 0.21,0.522 0.122,0.81c0.325,0.143 0.476,0.389 0.452,0.744c-0.023,-0.205 -0.12,-0.362 -0.296,-0.469c-0.038,0.083 -0.075,0.167 -0.113,0.25c-0.215,-0.217 -0.534,-1.404 -0.912,-1.413c-0.586,-0.011 -0.379,0.815 -0.124,1.097c-0.513,-0.296 -0.74,0.127 -0.714,0.584c0.38,-0.275 1.267,1.352 1.764,1.442c0.659,0.12 0.261,-0.006 0.608,-0.314c-0.071,0.062 0.245,-0.881 0.266,-0.944c0.183,0.249 0.225,0.516 0.122,0.808c0.2,-0.168 0.325,-0.38 0.374,-0.638c0.094,0.409 0.194,0.816 0.304,1.219c0.245,-0.071 0.457,-0.198 0.634,-0.379c-0.175,0.506 0.543,1.027 0.941,1.145c-0.583,0.11 -0.788,-0.599 -1.245,-0.782c-0.163,0.513 -0.692,0.527 -0.32,1.354c0.204,0.449 0.904,1.127 1.217,0.379c-0.071,0.442 -0.634,0.673 -0.181,1.116c0.287,0.282 0.678,-0.28 0.824,-0.038c0.085,0.139 -0.349,0.589 -0.426,0.667c0.374,-0.066 1.772,-0.024 1.636,-0.723c0.586,0.391 0.414,1.109 0.854,1.38c0.337,-0.568 0.759,-1.235 0.504,-1.927c0.606,0.904 0.937,1.366 2.046,0.747c-0.739,1.024 -2.503,1.5 -1.855,3.245c1.194,-0.305 2.383,-1.741 2.228,-3.012c1.05,1.02 2.35,-2.244 0.784,-1.656c0.464,-0.317 -0.919,0.071 -1.201,0.311c-0.116,0.101 -1.321,-0.317 -1.636,-0.616m-0.017,13.305c-0.4,-1.024 -1.229,-1.445 -2.183,-0.972c0.043,0.061 0.087,0.122 0.13,0.183c-0.087,-0.094 -0.194,-0.15 -0.321,-0.165c0.04,0.158 0.081,0.316 0.121,0.474c-0.349,-0.056 -0.718,0.2 -1.105,0.024c-0.047,0.27 0.068,0.651 0.427,0.578c-1.117,0.789 0.492,1.154 1.071,1.42c0.336,0.154 0.478,0.438 0.843,0.452c0.212,0.008 0.862,-0.513 1.034,-0.277c0.157,0.216 -1.696,1.252 -1.84,1.511c-0.692,1.246 0.723,1.184 1.163,0.73c0.203,-0.277 0.476,-0.402 0.818,-0.377c-0.363,0.229 -0.314,0.561 -0.93,0.85c-0.551,0.257 -1.274,0.267 -1.856,0.125c0.085,0.511 0.182,0.591 -0.402,0.361c0.098,-0.05 0.087,0.018 0.226,0c-0.036,-0.566 -1.1,-0.519 -1.123,0.275c1.045,1.033 1.208,0.534 2.512,0.344c0.549,-0.08 2.71,-1.305 3.025,-1.034c0.087,0.075 -0.558,0.434 -0.423,0.589c0.588,0.682 1.923,-0.888 2.058,-1.281c-0.379,0.009 -0.733,0.11 -1.062,0.299c0.171,-0.2 0.732,-0.488 0.47,-0.85c0.372,-0.108 0.446,0.588 0.815,0.249c0.297,-0.273 0.075,-0.671 -0.24,-0.548c0.045,-0.082 0.09,-0.163 0.136,-0.243c0.257,-0.011 0.448,0.144 0.153,-0.275c-0.091,-0.129 -0.941,-0.714 -1.148,-0.838c-0.518,-0.307 -1.206,-0.259 -1.698,-0.605c-0.339,-0.241 -0.408,-0.679 -0.671,-0.999m-16.181,-19.588c0.154,0.288 0.363,0.342 0.627,0.161c-0.076,0.501 0.636,0.631 0.565,0.139c0.254,0.292 0.715,0.609 1.114,0.633c-0.081,0.011 -0.163,0.023 -0.243,0.033c0.099,0.104 1.107,1.578 1.238,0.73c0.127,0.054 0.222,0.099 0.347,0.146c-0.062,-0.059 -0.139,-0.104 -0.234,-0.186c0.198,0.087 0.558,0.151 0.853,0.08l-0.261,0c1.094,-0.641 -0.596,-0.606 -0.573,-0.989c0.502,0.24 1.206,-0.009 1.253,-0.617c-0.16,0.052 -0.619,0.104 -0.773,0.024c0.457,-0.205 -0.044,-0.182 0.269,-0.365c-0.72,-0.106 -0.217,-0.292 -0.678,-0.537c0.789,-0.25 0.36,0.31 1.019,0.106c-0.259,0.167 -0.202,0.339 0.174,0.52c0.382,-0.381 0.436,-0.911 -0.202,-1c0.064,0.054 0.127,0.108 0.191,0.162c-0.457,0.115 -0.607,0.04 -0.958,-0.13c0.916,0.017 -0.012,-0.628 0.105,-0.749c-0.169,-0.065 -1.459,0.749 -0.645,0.764c-0.205,-0.003 -0.348,0.087 -0.428,0.27c-0.076,-0.205 -0.224,-0.301 -0.443,-0.285c0.193,-0.214 0.243,-0.456 0.148,-0.725c-0.277,0.348 -0.699,0.683 -0.715,1.171c-0.42,-0.21 -0.645,-0.683 -1.157,-0.354c-0.312,0.2 -0.094,0.761 -0.376,0.956c-0.132,-0.283 -0.078,0.007 -0.217,0.042m0.973,7c1.208,0.601 -0.128,2.595 1.815,2.623c1.625,0.022 -0.165,-0.642 -0.831,-0.956c0.143,0.067 0.89,0.126 0.497,-0.157c0.555,0.568 0.516,-0.335 0.393,-0.671c-0.172,-0.466 -0.843,-0.589 -0.88,-0.904c0.244,0.537 0.998,0.146 1.209,-0.068c0.792,-0.806 0.073,-1.143 -0.459,-1.703c0.316,0.177 0.596,0.078 0.731,-0.257c-0.166,0.118 -0.335,0.123 -0.505,0.015c0.1,0.007 0.203,0.009 0.306,0.007c-0.058,-0.154 -0.492,-0.466 -0.654,-0.523c0.12,0.019 0.238,0.038 0.358,0.057c-0.214,-0.985 -1.484,-0.41 -1.644,0.209c-0.181,0.697 0.838,1.975 -0.336,2.328m29.945,72.679c0.565,0.65 1.164,1.389 1.507,2.188c0.198,-0.208 0.405,-0.408 0.617,-0.601c-0.217,0.281 -0.329,0.601 -0.33,0.958c0.337,-0.155 0.643,-0.103 0.914,0.153c-0.075,-0.15 -0.193,-0.388 0.271,-0.546c0.329,-0.278 0.643,-0.57 0.944,-0.876c0.615,-0.602 1.186,-1.248 1.823,-1.827c-0.627,-0.138 -1.171,0.241 -1.785,0.269c0.084,-0.424 -0.208,-1.536 -0.862,-1.23c0.845,-0.979 -1.248,-1.049 -1.769,-0.948c-0.376,0.073 -0.722,0.15 -0.972,0.463c-0.181,0.227 -0.532,1.609 0.097,1.576c-0.153,0.139 -0.304,0.28 -0.455,0.421m-20.211,-43.381c0.597,1.147 1.772,-1.944 2.665,-1.702c-0.782,-0.212 -0.252,2.014 -0.249,2.082c0.034,0.861 -0.973,2.102 0.569,1.36c0.361,-0.174 0.845,-0.478 1.199,-0.68c0.412,-0.235 0.972,-0.716 1.021,-1.1c0.062,-0.492 -0.405,-1.469 -0.529,-1.97c-0.208,-0.848 -0.403,-1.691 -0.481,-2.564c-0.563,0.059 -1.295,0.649 -1.627,1.069c-0.129,0.162 -0.572,1.076 -0.628,1.081c-0.008,-0.439 0.032,-0.874 0.122,-1.303c-0.751,0.441 -1.384,0.841 -1.61,1.719c-0.184,0.716 0.174,1.406 -0.452,2.008m5.491,-5.544c-0.029,0.11 -0.057,0.219 -0.086,0.329c0.658,0.033 1.131,0.111 1.6,-0.313c-0.059,0.699 -0.935,0.445 -1.369,0.629c-0.748,0.317 -1.318,1.151 -1.144,1.982c0.165,0.785 0.866,1.265 1.457,0.615c0.241,-0.266 0.071,-0.692 0.271,-0.982c0.151,-0.219 0.436,-0.043 0.497,-0.401c-0.014,0.074 -0.028,0.149 -0.044,0.224c0.256,-1.021 2.401,-3.623 1.916,-4.582c-0.49,-0.974 -2.68,1.971 -3.098,2.499m12.561,35.172c0.042,0.014 1.856,-0.803 1.724,0.134c0.273,-0.139 0.317,-0.583 0.621,-0.889c0.547,-0.552 1.189,-0.836 1.688,-1.508c0.427,-0.577 0.973,-1.401 0.871,-2.149c-0.023,-0.16 -0.501,-0.304 -0.551,-0.488c-0.146,-0.53 0.267,-0.946 0.182,-1.467c-1.625,0.665 -2.154,1.451 -3.028,2.96c-0.537,0.928 -0.723,2.722 -1.507,3.407m33.531,58.163c0.797,-0.024 1.361,0.193 2.006,0.633c0.418,0.285 0.749,0.761 1.314,0.718c0.709,-0.054 0.518,-0.405 0.909,-0.776c0.198,-0.187 1.058,-0.731 1.13,-0.963c-0.009,-0.017 -0.452,-0.573 -0.583,-0.625c-0.273,-0.112 -0.761,-0.23 -1.027,-0.025c0.094,-0.342 -0.593,-0.891 -0.678,-0.33c-0.102,-0.688 -1.024,0.285 -1.262,0.351c0.113,0.058 0.226,0.115 0.339,0.172c-0.443,-0.076 -0.184,-0.027 -0.487,0.124c0.044,-0.099 0.087,-0.197 0.131,-0.296c-0.376,0.061 -0.941,0.183 -0.967,0.668c0.002,-0.701 -0.65,0.248 -0.825,0.349m-60.863,-121.414c0.554,1.055 0.653,0.784 1.672,1.244c-0.141,-0.137 -0.306,-0.231 -0.495,-0.281c0.669,0.44 0.832,-0.219 1.051,-0.171c-0.09,-0.194 -0.245,-0.288 -0.46,-0.283c0.054,0.087 0.132,0.132 0.234,0.137c-1.204,-0.121 -0.408,-0.012 -0.443,-0.412c0.038,0.11 0.11,0.15 0.217,0.12c-0.02,-0.078 -0.04,-0.156 -0.06,-0.234c0.142,0.111 0.064,0.257 0.33,0.241c-0.063,-0.071 -0.141,-0.111 -0.237,-0.121c0.073,-0.19 0.206,-0.233 0.4,-0.129c-0.247,-0.182 -0.542,-0.52 -0.495,-0.073c-0.543,-0.537 -1.158,-0.61 -1.714,-0.038m4.335,18.406c0.203,0.308 0.256,0.638 0.156,0.994c0.279,-0.18 0.741,-0.01 1.035,-0.154c-0.174,0.085 0.309,-0.579 0.288,-0.553c0.233,-0.306 1.845,-0.861 1.054,-1.271c-0.43,1.014 -1.93,0.164 -2.533,0.984m-5.397,-9.432c-0.014,-0.111 -0.65,1.304 -0.018,1.047c0.093,-0.037 1.487,-0.172 1.01,-0.871c0.131,0.162 0.287,0.193 0.471,0.095c-0.041,-0.045 -0.5,-0.26 -0.495,-0.333c0.019,-0.282 0.052,0.175 0.017,-0.138l0.27,0.136c-0.289,-0.17 -0.211,-1.125 -0.645,-1.055c0.24,0.54 -0.247,0.902 -0.749,0.846c0.161,0.033 0.208,0.124 0.139,0.273m8.392,8.074c0.078,0.087 0.156,0.174 0.235,0.261c0.153,-0.547 0.539,-0.017 0.645,-0.553c-0.127,0.447 1.105,-0.133 1.053,-0.735c0.262,0.351 1.42,-1.363 -0.087,-0.945c-0.796,0.22 -1.246,1.477 -1.846,1.972m13.718,18.024c0.482,1.064 0.41,2.983 1.831,3.284c0.737,0.156 1.606,-0.303 1.515,-1.135c-0.033,-0.303 -0.438,-0.35 -0.49,-0.624c-0.024,-0.127 0.395,-0.391 0.428,-0.331c-0.167,-0.325 -0.424,-0.537 -0.775,-0.639c0.949,-0.659 -1.953,-4.497 -2.509,-0.555m7.259,41.48c0.124,0.294 1.406,1.093 1.551,1.048c-0.298,-0.259 -0.831,-2.216 -1.551,-1.048m-5.43,-46.8c0.123,0.471 0.615,0.505 0.815,0.886c0.259,0.492 0.28,0.953 0.247,1.516c0.657,-0.315 0.478,0.907 0.998,0.874c0.422,-0.026 0.186,-1.458 0.059,-1.705c-0.223,-0.438 -1.632,-2.7 -2.119,-1.571m-11.038,-2.537c0.511,-0.187 0.475,0.159 0.942,-0.267c0.228,-0.207 0.734,-1.283 0.372,-1.551c-0.594,0.511 -0.824,1.24 -1.314,1.818m0.452,-18.241c-0.134,-0.085 -0.268,-0.17 -0.402,-0.255c0.649,-0.242 -1.526,-1.61 -1.733,0.097c-0.191,1.599 1.709,1.412 2.135,0.158m4.804,25.05c0.042,0.157 0.08,0.313 0.113,0.469c0.152,-0.093 0.68,-1.489 0.43,-1.486c-0.296,0.007 -0.489,0.803 -0.543,1.017m-2.324,-31.801c0.251,-0.558 -0.356,-1.213 -0.246,-1.794c0.08,-0.426 0.853,-0.801 0.273,-1.237c0.003,0.333 -0.381,0.549 -0.209,0.889c-1.789,-0.411 -0.306,3.216 0.182,2.142m4.17,16.986c0.704,-0.167 1.513,-1.227 1.794,-1.877c-0.572,0.125 -1.536,1.269 -1.794,1.877m-20.631,-8.973c0.122,0.04 0.179,0.129 0.331,0.129c-0.086,0.089 -0.079,0.097 -0.209,0.127c0.177,0.327 0.447,0.233 0.619,-0.04c-0.101,0.009 -0.204,0.015 -0.304,0.024c0.224,-0.139 0.064,-0.165 0.469,-0.16c-0.123,-0.172 -0.669,-0.361 -0.869,-0.367c-0.012,0.096 -0.025,0.192 -0.037,0.287m68.621,109.191c0.229,0.092 0.485,0.125 0.723,0.089c0.002,0.028 -0.654,-0.615 -0.235,-0.836c-0.21,0.221 -0.445,0.414 -0.704,0.573c0.07,0.06 0.143,0.117 0.216,0.174m-62.605,-127.687c0.604,-1.217 -1.102,-0.256 -0.784,0.229c0.218,-0.337 0.425,-0.382 0.784,-0.229m14.702,28.997c0.132,0.076 0.376,-0.078 0.332,0.189c0.265,-0.278 0.597,-0.632 0.678,-1.022c-0.328,0.353 -0.838,0.312 -1.01,0.833m-7.085,-1.796c0.317,0.148 0.916,0.536 1.229,0.122c0.032,-0.042 -0.907,-0.984 -1.229,-0.122m2.855,-20.382c0.013,0.184 0.097,0.334 0.252,0.447c0.086,-0.371 0.406,-0.991 0.069,-1.348c-0.219,0.256 -0.003,0.628 -0.321,0.901m-2.212,12.538c0.411,0.497 1.254,0.068 0.998,-0.562c-0.269,-0.664 -1.029,0.115 -0.998,0.562m5.78,11.241c0.066,0.151 0.27,0.391 0.339,0.587c0.233,-0.358 0.207,-0.716 0.426,-1.121c-0.273,0.296 -0.355,0.348 -0.243,0.157c-0.252,-0.054 -0.442,0.111 -0.522,0.377m47.425,96.794c0.073,0.457 0.519,0.459 0.888,0.221c-0.073,-0.498 -0.579,-1.063 -0.888,-0.221m-47.547,-95.32c0.051,0.148 0.209,0.382 0.357,0.539c-0.038,-0.6 0.267,-1.028 -0.052,-1.533c-0.205,0.313 -0.19,0.608 -0.305,0.994m-16.085,-24.315c0.165,0.065 0.21,0.174 0.139,0.325c0.33,-0.017 0.391,-0.599 0.009,-0.575c0.152,0.675 0.026,-0.33 -0.148,0.25m-4.822,13.303c0.394,0.158 0.61,-0.212 0.393,-0.596c-0.143,0.076 -0.357,0.441 -0.393,0.596m2.732,-14.356c0.249,0.261 0.383,0.647 0.55,0.9c0.008,-0.199 -0.108,-1.303 -0.365,-0.778c0.008,0.007 -0.308,-0.466 -0.185,-0.122m17.272,26.322c1.347,1.034 0.431,-1.797 0,0m-15.895,-25.428c0.071,0.168 0.567,0.486 0.784,0.436c-0.294,-0.683 -0.229,-0.511 -0.784,-0.436m0.504,-4.063c1.273,0.487 0.669,-1.622 0,0m9.887,16.858c0.219,0.125 0.245,0.071 0.478,0.182c0.48,-0.568 -0.346,-0.252 -0.478,-0.182m-3.428,-4.134c0.473,0.211 0.737,-0.241 1.262,-0.104c-0.099,-0.549 -0.987,-0.181 -1.262,0.104m3.691,-1.842c0.316,0.434 0.556,0.351 0.506,-0.08c0.618,-0.237 -0.169,-0.391 -0.506,0.08m3.758,6.854c0.274,0.135 0.553,0.146 0.836,0.031c-0.236,-0.233 -0.615,-0.397 -0.836,-0.031m-4.003,14.5c0.243,0.019 0.316,0.141 0.219,0.367c0.146,-0.176 0.328,-0.292 0.547,-0.35c-0.069,-0.278 -0.575,-0.132 -0.766,-0.017m-0.331,-8.696c0.332,0.278 0.339,0.17 0.576,-0.206c-0.244,-0.076 -0.435,-0.008 -0.576,0.206m3.247,-15.401c0.322,0.502 1.047,0.052 0.692,-0.471c-0.33,-0.491 -1.248,-0.084 -0.692,0.471m-15.049,-7.244c0.36,0.289 0.587,0.235 0.678,-0.161c-0.358,0.022 -0.416,-0.007 -0.678,0.161m1.323,11.285c0.081,0.294 0.05,0.628 0.365,0.304c-0.07,-0.031 -0.139,-0.064 -0.209,-0.095c0.238,-0.056 0.342,-0.205 0.313,-0.451c-0.336,-0.177 -0.492,-0.095 -0.469,0.242m0.853,-6.047c0.085,0.04 0.172,0.08 0.257,0.12c0.025,-0.006 0.216,-0.477 0.214,-0.492c-0.233,0.029 -0.389,0.153 -0.471,0.372m8.165,20.584c0.434,0.302 0.627,-0.189 0.712,-0.627c-0.514,-0.009 -0.396,0.385 -0.712,0.627m15.633,10.61c0.581,0.174 0.703,-0.427 0.548,-0.843c-0.388,0.082 -0.513,0.506 -0.548,0.843m-24.128,-38.599c0.782,0.939 0.603,-1.005 0,0m-1.047,14.7c0.127,0.023 0.265,0.096 0.365,0.111c-0.093,-0.292 -0.187,-0.113 -0.365,-0.111m18.212,15.295c0.021,0.076 0.04,0.151 0.061,0.228c0.144,-0.115 0.217,-0.687 0.073,-0.562c-0.045,0.111 -0.091,0.223 -0.134,0.334m6.789,9.145c0.242,0.257 0.353,0.158 0.331,-0.294c-0.15,0.054 -0.259,0.153 -0.331,0.294m-16.122,-25.111c0.158,0.035 0.32,0.059 0.506,0.08c-0.182,-0.236 -0.316,-0.116 -0.506,-0.08m-8.216,-12.871c0.114,0.119 0.031,0.264 0.278,0.212c-0.021,-0.404 -0.08,-0.272 -0.278,-0.212m-3.152,16.685c0.247,0.009 0.357,0.062 0.454,-0.129c-0.316,-0.189 -0.301,-0.024 -0.454,0.129m25.401,19.904c0.082,0.152 -0.002,0.261 0.183,0.319c-0.004,-0.207 -0.032,-0.303 -0.105,-0.543c-0.135,0.072 -0.001,0.127 -0.078,0.224m-22.354,-35.595c0.105,0.043 0.209,0.087 0.313,0.13c0.016,-0.297 -0.088,-0.341 -0.313,-0.13m2.229,-2.07c0.097,0.137 0.125,0.241 0.26,0.293c-0.022,-0.146 -0.046,-0.293 -0.069,-0.439c-0.063,0.048 -0.127,0.097 -0.191,0.146m2.819,-0.85c0.228,0.3 0.131,-0.1 0,0m-2.419,3.066c0.264,0.075 0.064,-0.337 0,0m-0.383,-1.728c0.134,0.054 0.266,0.11 0.4,0.163c-0.087,-0.25 -0.219,-0.306 -0.4,-0.163m-0.94,2.084c0.137,0.024 -0.005,0.205 0.193,0.082c-0.117,-0.207 -0.185,-0.08 -0.193,-0.082m-0.749,4.653c0.245,0.287 0.22,-0.187 0,0m-4.212,11.761c0.161,0.153 0.323,0.153 0.487,0l-0.487,0m3.725,-13.782c0.215,0.215 0.2,-0.176 0,0m-0.4,9.286c0.071,0.04 0.146,0.067 0.226,0.081c-0.056,-0.46 -0.03,-0.088 -0.226,-0.081m0.887,-3.301c0.102,-0.004 0.109,0.168 0.191,-0.016c-0.171,-0.169 -0.115,0.012 -0.191,0.016m1.202,-8.942c0.066,-0.087 0.171,-0.012 0.174,-0.226c-0.182,0.007 -0.095,0.124 -0.174,0.226m0.145,0.904c0.052,-0.05 0.18,0.104 0.104,-0.113c-0.146,-0.129 -0.04,0.05 -0.104,0.113m-2.635,11.77c0.116,0.064 0.015,0.177 0.191,0.111c0.001,-0.237 -0.092,-0.056 -0.191,-0.111m-0.765,1.566c0.073,-0.009 0.163,0.189 0.132,-0.12c-0.127,-0.012 -0.122,0.118 -0.132,0.12m4.743,-15.371l-0.113,-0.04c0.066,0.093 0.138,0.184 0.113,0.04m-2.776,6.174c0.08,0.038 0.013,0.163 0.174,0.048c-0.075,-0.095 -0.189,-0.055 -0.174,-0.048m2.35,-6.051l0.192,0.082c-0.044,-0.115 -0.103,-0.171 -0.192,-0.082m-3.325,13.762l0.174,-0.047c-0.092,-0.068 -0.162,-0.073 -0.174,0.047m1.653,-9.425l0.087,0.015c-0.04,-0.088 -0.069,-0.086 -0.087,-0.015" style="fill:#df9827;fill-rule:nonzero;stroke:#df9827;stroke-width:2.08px;stroke-linecap:butt;stroke-miterlimit:2;"/><path d="M370.594,2181.03c-1.244,-0.566 -0.396,-2.428 -1.375,-3.231c-0.938,-0.772 -2.996,-0.085 -3.473,0.956c0.082,-0.289 0.032,-0.306 -0.146,-0.052c0.016,-0.049 0.143,-0.428 -0.007,-0.094c0.304,-0.23 -0.012,-0.426 0.414,-0.987c0.553,-0.731 1.803,-0.953 1.801,-2.046c0,-0.279 -0.398,-1.316 -0.768,-1.321c-0.593,-0.009 0.516,1.427 0.483,1.566c-1.141,-1.342 -1.808,-2.343 -2.434,-3.715c-0.135,-0.299 -0.109,-0.806 -0.254,-1.065c-0.069,-0.126 -0.467,-0.348 -0.472,-0.357c-0.277,-0.556 -0.044,-0.992 -0.155,-1.675c-0.236,-1.447 -1.825,-1.521 -3.039,-1.575c-1.811,-0.082 -2.904,0.791 -4.557,1.222c0.088,0.024 0.175,0.05 0.264,0.074c-0.779,-0.18 -1.622,-0.165 -2.327,-0.587c0.04,0.304 -0.56,1.491 -0.112,1.639c-0.692,-0.162 -1.088,1.059 -1.731,1.074c-0.304,0.007 -0.737,-0.241 -1.066,-0.123c-2.468,0.992 -1.51,4.519 -3.711,5.668c-0.785,0.41 -2.576,-0.102 -3.108,0.629c-0.685,0.943 1.167,2.133 1.938,1.468c0.345,0.884 -4.041,2.922 -4.7,3.01c0.376,0.847 1.154,1.311 1.747,1.977c0.589,0.66 0.833,1.755 1.547,2.282c0.508,0.374 1.274,0.527 1.834,0.867c1.088,0.664 1.563,0.654 2.783,0.258c0.076,0.18 0.017,0.299 -0.177,0.354c2.876,0.155 2.082,-2.341 3.208,-3.984c1.626,-2.371 2.766,1.763 3.644,2.7c0.304,0.325 0.69,0.521 0.944,0.902c0.226,0.34 0.241,0.801 0.455,1.119c0.469,0.699 0.763,0.732 1.648,0.577c0.643,-0.113 1.257,-0.519 1.879,-0.617c0.556,-0.085 1.738,0.275 2.268,0.852c-0.111,0.059 -0.222,0.118 -0.333,0.175c1.797,1.935 2.503,-3.702 3.064,-4.295c0.037,0.211 -0.033,0.374 -0.208,0.494c0.373,0.53 1.816,-0.398 1.818,0.558c0.398,-0.765 1.18,-0.942 1.196,-1.916c0.022,-1.395 -0.682,-0.396 -1.412,-0.73c0.563,-0.24 0.603,-1.142 0.565,-1.654c-0.047,-0.265 -0.464,-0.557 -0.368,-0.779c-0.035,0.05 0.426,0.059 0.483,0.008c-0.379,0.021 -0.8,-0.375 -1.081,-0.584c0.549,-0.439 1.54,-0.857 1.42,0.279c0.309,-0.379 0.852,0.982 0.268,1.192c0.683,0.172 -0.101,0.346 -0.072,0.643c0.061,0.617 0.181,1.125 0.638,1.622c0.485,-0.687 0.702,-1.963 0.576,-2.783c0.026,0.146 0.224,0.059 0.201,0.005Z" style="fill:#df9827;fill-rule:nonzero;stroke:#df9827;stroke-width:2.08px;stroke-linecap:butt;stroke-miterlimit:2;"/></g><g transform="matrix(1.53846,0,0,1.53846,-19.4051,2001.1)"><text x="28.467px" y="111.023px" style="font-family:'ArialMT', 'Arial', sans-serif;font-size:32.5px;fill:#df9827;">transported to</text><text x="76.375px" y="144.587px" style="font-family:'Arial-BoldMT', 'Arial', sans-serif;font-weight:700;font-size:32.5px;fill:#df9827;">the UK</text></g></g></svg>