<?xml version="1.0" encoding="UTF-8" standalone="no"?><!DOCTYPE svg PUBLIC "-//W3C//DTD SVG 1.1//EN" "http://www.w3.org/Graphics/SVG/1.1/DTD/svg11.dtd"><svg width="100%" height="100%" viewBox="0 0 1563 2780" version="1.1" xmlns="http://www.w3.org/2000/svg" xmlns:xlink="http://www.w3.org/1999/xlink" xml:space="preserve" xmlns:serif="http://www.serif.com/" style="fill-rule:evenodd;clip-rule:evenodd;stroke-linecap:round;stroke-linejoin:round;stroke-miterlimit:1.5;"><rect id="Artboard1" x="0" y="0" width="1562.5" height="2779.17" style="fill:none;"/><clipPath id="_clip1"><rect id="Artboard11" serif:id="Artboard1" x="0" y="0" width="1562.5" height="2779.17"/></clipPath><g clip-path="url(#_clip1)"><rect x="2.653" y="-0.106" width="1554.11" height="2773.99" style="fill:#14171e;"/><g><rect x="316.489" y="161.523" width="927.376" height="322.276" style="fill:#df9827;"/><g transform="matrix(3.35222,0,0,3.35222,348.428,-64.3394)"><text x="21.076px" y="111.023px" style="font-family:'Arial-BoldMT', 'Arial', sans-serif;font-weight:700;font-size:26.917px;fill:#fef7ea;">UK consumption</text><text x="62.909px" y="138.821px" style="font-family:'Arial-BoldMT', 'Arial', sans-serif;font-weight:700;font-size:26.917px;fill:#fef7ea;">emissions</text></g></g><g><rect x="324.965" y="798.984" width="910.425" height="312.539" style="fill:#df9827;"/><g transform="matrix(2.98485,0,0,2.98485,396.085,604.09)"><text x="12.806px" y="111.023px" style="font-family:'ArialMT', 'Arial', sans-serif;font-size:25.127px;fill:#fef7ea;">emissions generated</text><text x="-16.517px" y="136.972px" style="font-family:'ArialMT', 'Arial', sans-serif;font-size:25.127px;fill:#fef7ea;">directly by UK households</text></g></g><g><rect x="333.443" y="1436.18" width="893.468" height="303.33" style="fill:#df9827;"/><g transform="matrix(3.01814,0,0,3.01814,392.844,1194.7)"><text x="0.962px" y="111.023px" style="font-family:'ArialMT', 'Arial', sans-serif;font-size:24.85px;fill:#fef7ea;">emissions generated in</text><text x="23.761px" y="136.686px" style="font-family:'ArialMT', 'Arial', sans-serif;font-size:24.85px;fill:#fef7ea;">consumption of UK</text><text x="25.818px" y="162.349px" style="font-family:'ArialMT', 'Arial', sans-serif;font-size:24.85px;fill:#fef7ea;">produced products</text></g></g><text x="719.346px" y="712.556px" style="font-family:'ArialMT', 'Arial', sans-serif;font-size:208.333px;fill:#fef7ea;">=</text><text x="719.346px" y="1344.94px" style="font-family:'ArialMT', 'Arial', sans-serif;font-size:208.333px;fill:#fef7ea;">+</text><g><g><rect x="172.487" y="2069.11" width="486.34" height="302.654" style="fill:#df9827;"/><g transform="matrix(2.89045,0,0,2.89045,42.6388,1882.6)"><text x="52.254px" y="111.023px" style="font-family:'ArialMT', 'Arial', sans-serif;font-size:22.75px;fill:#fef7ea;">emissions from</text><text x="50.327px" y="134.518px" style="font-family:'ArialMT', 'Arial', sans-serif;font-size:22.75px;fill:#fef7ea;">imported goods</text></g></g><g><rect x="887.187" y="2069.11" width="485.981" height="302.654" style="fill:#df9827;"/><g transform="matrix(2.89045,0,0,2.89045,758.138,1882.6)"><text x="52.254px" y="111.023px" style="font-family:'ArialMT', 'Arial', sans-serif;font-size:22.75px;fill:#fef7ea;">emissions from</text><text x="50.316px" y="134.518px" style="font-family:'ArialMT', 'Arial', sans-serif;font-size:22.75px;fill:#fef7ea;">exported goods</text></g></g><text x="748.194px" y="2274.41px" style="font-family:'ArialMT', 'Arial', sans-serif;font-size:208.333px;fill:#fef7ea;">-</text><text x="1436.34px" y="2274.35px" style="font-family:'ArialMT', 'Arial', sans-serif;font-size:208.333px;fill:#fef7ea;">)</text><text x="49.55px" y="2274.35px" style="font-family:'ArialMT', 'Arial', sans-serif;font-size:208.333px;fill:#fef7ea;">(</text></g><text x="719.346px" y="1977.54px" style="font-family:'ArialMT', 'Arial', sans-serif;font-size:208.333px;fill:#fef7ea;">+</text><g><path d="M137.893,2440.38l0,111.571l1284.57,0l0,-111.408" style="fill:none;stroke:#df9827;stroke-width:6.68px;"/><text x="285.702px" y="2632.21px" style="font-family:'ArialMT', 'Arial', sans-serif;font-size:75.735px;fill:#df9827;">emissions embedded in trade</text></g></g></svg>