<?xml version="1.0" encoding="UTF-8" standalone="no"?>
<!DOCTYPE svg PUBLIC "-//W3C//DTD SVG 1.1//EN" "http://www.w3.org/Graphics/SVG/1.1/DTD/svg11.dtd">
<svg width="100%" height="100%" viewBox="0 0 4445 3334" version="1.1" xmlns="http://www.w3.org/2000/svg" xmlns:xlink="http://www.w3.org/1999/xlink" xml:space="preserve" xmlns:serif="http://www.serif.com/" style="fill-rule:evenodd;clip-rule:evenodd;stroke-linecap:round;stroke-miterlimit:10;">
    <g transform="matrix(5.55556,0,0,5.55556,0,0)">
        <g id="chart-background" transform="matrix(1.31162,0,0,1,-3.24538,-6)">
            <rect x="0" y="0" width="612" height="612" style="fill:rgb(20,23,30);"/>
        </g>
        <g id="ft-socialgraphictitle" transform="matrix(1,0,0,1,94,-6)">
            <g transform="matrix(1,0,0,1,-57.2454,80)">
                <text x="0px" y="0px" style="font-family:'HelveticaNeue-Light', 'Helvetica Neue';font-weight:300;font-size:30px;fill:white;">T<tspan x="17.4px 22.95px " y="0px 0px ">im</tspan>eline of EU climate targets</text>
            </g>
            <g transform="matrix(1,0,0,1,285.838,347.691)">
                <text x="10.368px" y="0px" style="font-family:'HelveticaNeue-Light', 'Helvetica Neue';font-weight:300;font-size:16px;fill:rgb(223,152,39);">new pr<tspan x="57.504px 66.4px " y="0px 0px ">op</tspan>osed</text>
                <text x="29.616px" y="16px" style="font-family:'HelveticaNeue-Light', 'Helvetica Neue';font-weight:300;font-size:16px;fill:rgb(223,152,39);">2030 target</text>
            </g>
            <g transform="matrix(0.932256,0,0,1.23215,-63.5862,-69.9028)">
                <g transform="matrix(0.19308,-0,-0,0.146086,-32.6239,61.6018)">
                    <path d="M2657.75,1719.7L2664.6,1739.78L2644.52,1746.63" style="fill:none;stroke:rgb(223,152,39);stroke-width:8.33px;"/>
                    <path d="M2494.16,1816.4C2494.16,1816.4 2530.43,1675.89 2664.6,1739.78" style="fill:none;stroke:rgb(223,152,39);stroke-width:8.33px;stroke-linejoin:round;stroke-miterlimit:1.5;stroke-dasharray:8.33,16.67,0,0;"/>
                </g>
            </g>
        </g>
        <g transform="matrix(1,0,0,1,36.7546,106)">
            <g id="ft-socialgraphicsubtitle">
                <text x="0px" y="0px" style="font-family:'HelveticaNeue-Light', 'Helvetica Neue';font-weight:300;font-size:24px;fill:rgb(142,144,149);">Overall GHG emissions as a pr<tspan x="315.624px 328.968px " y="0px 0px ">op</tspan>ortion of 1990 levels</text>
            </g>
        </g>
        <g id="ft-socialgraphicsource">
        </g>
        <g transform="matrix(1,0,0,1,144,142)">
            <g id="socialyLabel" transform="matrix(1,0,0,1,584.857,331.34)">
                <text x="-11.12px" y="0px" style="font-family:'HelveticaNeue-Light', 'Helvetica Neue';font-weight:300;font-size:20px;fill:rgb(254,247,234);">0</text>
            </g>
            <g id="socialyTick" transform="matrix(1.31162,0,0,1,-81.6643,261.3)">
                <path d="M0,0L490.797,0" style="fill:none;fill-rule:nonzero;stroke:rgb(254,247,234);stroke-opacity:0.22;stroke-width:1px;stroke-linecap:butt;stroke-linejoin:miter;stroke-miterlimit:4;"/>
            </g>
            <g id="socialyLabel1" serif:id="socialyLabel" transform="matrix(1,0,0,1,595.937,266.14)">
                <text x="-22.24px" y="0px" style="font-family:'HelveticaNeue-Light', 'Helvetica Neue';font-weight:300;font-size:20px;fill:rgb(254,247,234);">20</text>
            </g>
            <g id="socialyTick1" serif:id="socialyTick" transform="matrix(0.42319,0,0,0.322646,354.375,196.1)">
                <path d="M0,0L490.797,0" style="fill:none;fill-rule:nonzero;stroke:rgb(254,247,234);stroke-opacity:0.22;stroke-width:1px;stroke-linecap:butt;stroke-linejoin:miter;stroke-miterlimit:4;"/>
            </g>
            <g id="socialyTick2" serif:id="socialyTick" transform="matrix(0.640302,0,0,0.488176,-81.6643,196.1)">
                <path d="M0,0L490.797,0" style="fill:none;fill-rule:nonzero;stroke:rgb(254,247,234);stroke-opacity:0.22;stroke-width:1px;stroke-linecap:butt;stroke-linejoin:miter;stroke-miterlimit:4;"/>
            </g>
            <g id="socialyLabel2" serif:id="socialyLabel" transform="matrix(1,0,0,1,596.057,200.94)">
                <text x="-22.24px" y="0px" style="font-family:'HelveticaNeue-Light', 'Helvetica Neue';font-weight:300;font-size:20px;fill:rgb(254,247,234);">40</text>
            </g>
            <g id="socialyTick3" serif:id="socialyTick" transform="matrix(1.31162,0,0,1,-81.6643,130.9)">
                <path d="M0,0L490.797,0" style="fill:none;fill-rule:nonzero;stroke:rgb(254,247,234);stroke-opacity:0.22;stroke-width:1px;stroke-linecap:butt;stroke-linejoin:miter;stroke-miterlimit:4;"/>
            </g>
            <g id="socialyLabel3" serif:id="socialyLabel" transform="matrix(1,0,0,1,595.857,135.74)">
                <text x="-22.24px" y="0px" style="font-family:'HelveticaNeue-Light', 'Helvetica Neue';font-weight:300;font-size:20px;fill:rgb(254,247,234);">60</text>
            </g>
            <g id="socialyTick4" serif:id="socialyTick" transform="matrix(1.31162,0,0,1,-81.6643,65.7)">
                <path d="M0,0L490.797,0" style="fill:none;fill-rule:nonzero;stroke:rgb(254,247,234);stroke-opacity:0.22;stroke-width:1px;stroke-linecap:butt;stroke-linejoin:miter;stroke-miterlimit:4;"/>
            </g>
            <g id="socialyLabel4" serif:id="socialyLabel" transform="matrix(1,0,0,1,595.917,70.54)">
                <text x="-22.24px" y="0px" style="font-family:'HelveticaNeue-Light', 'Helvetica Neue';font-weight:300;font-size:20px;fill:rgb(254,247,234);">80</text>
            </g>
            <g id="socialyTick5" serif:id="socialyTick" transform="matrix(1.31162,0,0,1,-81.6643,0.5)">
                <path d="M0,0L490.797,0" style="fill:none;fill-rule:nonzero;stroke:rgb(254,247,234);stroke-opacity:0.22;stroke-width:1px;stroke-linecap:butt;stroke-linejoin:miter;stroke-miterlimit:4;"/>
            </g>
            <g id="socialyLabel5" serif:id="socialyLabel" transform="matrix(1,0,0,1,605.837,5.34)">
                <text x="-33.36px" y="0px" style="font-family:'HelveticaNeue-Light', 'Helvetica Neue';font-weight:300;font-size:20px;fill:rgb(254,247,234);">100</text>
            </g>
            <g id="socialxTick" transform="matrix(1.31162,0,0,1,-81.0085,326)">
                <path d="M0,0L0,18" style="fill:none;fill-rule:nonzero;stroke:rgb(254,247,234);stroke-width:1px;stroke-linecap:butt;stroke-linejoin:miter;stroke-miterlimit:4;"/>
            </g>
            <g id="socialxLabel" transform="matrix(1,0,0,1,-80.3706,361.875)">
                <text x="-22.24px" y="0px" style="font-family:'HelveticaNeue-Light', 'Helvetica Neue';font-weight:300;font-size:20px;fill:rgb(254,247,234);stroke:rgb(254,247,234);stroke-width:1px;stroke-linecap:butt;stroke-linejoin:round;stroke-miterlimit:2;">1990</text>
            </g>
            <g id="socialxTick1" serif:id="socialxTick" transform="matrix(1.31162,0,0,1,240.846,326)">
                <path d="M0,0L0,18" style="fill:none;fill-rule:nonzero;stroke:rgb(254,247,234);stroke-width:1px;stroke-linecap:butt;stroke-linejoin:miter;stroke-miterlimit:4;"/>
            </g>
            <g id="socialxLabel1" serif:id="socialxLabel" transform="matrix(1,0,0,1,241.566,362.154)">
                <text x="-22.24px" y="0px" style="font-family:'HelveticaNeue-Light', 'Helvetica Neue';font-weight:300;font-size:20px;fill:rgb(254,247,234);stroke:rgb(254,247,234);stroke-width:1px;stroke-linecap:butt;stroke-linejoin:round;stroke-miterlimit:2;">2020</text>
            </g>
            <g id="socialxTick2" serif:id="socialxTick" transform="matrix(1.31162,0,0,1,348.151,326)">
                <path d="M0,0L0,18" style="fill:none;fill-rule:nonzero;stroke:rgb(254,247,234);stroke-width:1px;stroke-linecap:butt;stroke-linejoin:miter;stroke-miterlimit:4;"/>
            </g>
            <g id="socialxLabel2" serif:id="socialxLabel" transform="matrix(1,0,0,1,348.197,361.034)">
                <text x="-22.24px" y="0px" style="font-family:'HelveticaNeue-Light', 'Helvetica Neue';font-weight:300;font-size:20px;fill:rgb(254,247,234);stroke:rgb(254,247,234);stroke-width:1px;stroke-linecap:butt;stroke-linejoin:round;stroke-miterlimit:2;">2030</text>
            </g>
            <g id="socialxLabel3" serif:id="socialxLabel" transform="matrix(1,0,0,1,563.063,362.204)">
                <text x="-22.24px" y="0px" style="font-family:'HelveticaNeue-Light', 'Helvetica Neue';font-weight:300;font-size:20px;fill:rgb(254,247,234);stroke:rgb(254,247,234);stroke-width:1px;stroke-linecap:butt;stroke-linejoin:round;stroke-miterlimit:2;">2050</text>
            </g>
            <g id="socialxTick3" serif:id="socialxTick" transform="matrix(1.31162,0,0,1,562.731,326)">
                <path d="M0,0L0,18" style="fill:none;fill-rule:nonzero;stroke:rgb(254,247,234);stroke-width:1px;stroke-linecap:butt;stroke-linejoin:miter;stroke-miterlimit:4;"/>
            </g>
            <g transform="matrix(1.31162,0,0,1,-81.6643,326)">
                <path d="M0.5,7.2L0.5,0.5L491.297,0.5L491.297,7.2" style="fill:none;fill-rule:nonzero;stroke:rgb(254,247,234);stroke-width:0.86px;stroke-linecap:butt;stroke-linejoin:round;stroke-miterlimit:2;"/>
            </g>
            <g id="prop" transform="matrix(1.31162,0,0,1,-81.6643,0)">
                <path d="M0,0L245.387,65.2L327.198,130.4L490.797,326" style="fill:none;fill-rule:nonzero;stroke:rgb(223,152,39);stroke-width:3px;stroke-linecap:square;stroke-linejoin:round;stroke-miterlimit:4;"/>
            </g>
            <g transform="matrix(1,0,0,1,-441.654,-161.802)">
                <circle cx="358.736" cy="161.589" r="7.703" style="fill:rgb(223,152,39);"/>
            </g>
            <g transform="matrix(1,0,0,1,-116.401,-95.8333)">
                <circle cx="358.736" cy="161.589" r="7.703" style="fill:rgb(223,152,39);"/>
            </g>
            <g transform="matrix(1,0,0,1,-9.59375,-30.9609)">
                <circle cx="358.736" cy="161.589" r="7.703" style="fill:rgb(223,152,39);"/>
            </g>
            <g transform="matrix(1,0,0,1,-9.27585,8.53657)">
                <circle cx="358.736" cy="161.589" r="7.703" style="fill:rgb(223,152,39);fill-opacity:0.7;"/>
            </g>
            <g transform="matrix(0.989336,0,0,0.947626,-141.653,-129.888)">
                <path d="M495.17,306.463L495.17,325.204L386.155,206.665L495.17,306.463Z" style="fill:rgb(223,152,39);fill-opacity:0.4;"/>
            </g>
            <g transform="matrix(1,0,0,1,203.792,164.414)">
                <circle cx="358.736" cy="161.589" r="7.703" style="fill:rgb(223,152,39);"/>
            </g>
            <g transform="matrix(1.02085,0,0,1.01882,-158.752,-150.816)">
                <path d="M496.535,322.878L707.638,468.393L504.697,311.693L496.612,305.449L496.535,322.878Z" style="fill:rgb(223,152,39);fill-opacity:0.4;"/>
            </g>
        </g>
    </g>
</svg>
